<?xml version="1.0" standalone="no"?>
<!DOCTYPE svg PUBLIC "-//W3C//DTD SVG 20010904//EN"
 "http://www.w3.org/TR/2001/REC-SVG-20010904/DTD/svg10.dtd">
<svg version="1.0" xmlns="http://www.w3.org/2000/svg"
 width="700.000000pt" height="700.000000pt" viewBox="0 0 700.000000 700.000000"
 preserveAspectRatio="xMidYMid meet">
<metadata>
Created by potrace 1.14, written by Peter Selinger 2001-2017
</metadata>
<g transform="translate(0.000000,700.000000) scale(0.100000,-0.100000)"
fill="#000000" stroke="none">
<path d="M3315 6993 c-747 -45 -1433 -308 -2010 -769 -141 -113 -416 -388
-529 -529 -258 -322 -480 -732 -601 -1107 -119 -367 -169 -693 -169 -1093 0
-276 16 -439 69 -700 108 -533 353 -1055 701 -1490 114 -142 388 -417 529
-529 773 -616 1734 -877 2708 -735 605 87 1199 347 1682 735 626 504 1070
1232 1230 2019 53 262 69 423 69 705 0 282 -16 443 -69 705 -291 1432 -1468
2546 -2910 2754 -235 34 -496 47 -700 34z m-1633 -1134 c109 -140 197 -258
197 -264 0 -5 -34 -37 -75 -70 -84 -67 -300 -285 -354 -358 -19 -25 -39 -47
-44 -47 -9 0 -512 386 -521 401 -16 25 275 338 465 501 63 54 119 97 125 95 5
-2 99 -118 207 -258z m3968 163 c172 -148 472 -465 469 -498 0 -11 -504 -398
-522 -401 -6 -2 -28 18 -47 44 -54 72 -270 291 -354 358 -41 33 -75 64 -75 69
-1 8 338 455 382 504 11 12 23 22 26 22 4 0 58 -44 121 -98z m-1980 -52 c478
-36 898 -188 1280 -464 766 -554 1151 -1499 990 -2429 -124 -713 -556 -1337
-1182 -1708 -858 -509 -1943 -450 -2741 149 -802 603 -1163 1621 -917 2588 21
83 55 195 75 250 341 909 1176 1540 2135 1613 155 12 211 12 360 1z m3000
-2249 c38 -28 51 -60 47 -115 -4 -40 -10 -55 -36 -78 l-31 -28 32 -29 c30 -27
33 -34 33 -89 0 -50 -4 -65 -24 -86 -38 -40 -89 -52 -145 -33 -43 15 -326 222
-326 238 0 16 294 228 329 238 45 12 89 6 121 -18z m-6023 -101 c70 -61 129
-115 131 -119 3 -8 -222 -205 -256 -225 -11 -6 -114 72 -259 195 l-32 28 137
115 c75 63 140 115 144 116 4 0 65 -50 135 -110z m803 -1787 c54 -73 270 -291
354 -358 41 -33 75 -64 75 -70 1 -10 -353 -472 -389 -509 -18 -19 -20 -18 -92
40 -94 75 -387 368 -462 462 -55 67 -58 74 -43 89 32 32 502 392 512 392 6 0
26 -21 45 -46z m4414 -153 c140 -107 255 -200 255 -205 1 -6 -43 -62 -97 -125
-163 -190 -476 -481 -501 -465 -16 9 -401 512 -400 521 0 5 34 36 75 69 84 67
300 286 354 358 19 26 41 46 47 44 7 -1 127 -90 267 -197z"/>
<path d="M3705 5766 c-2 -12 -6 -45 -7 -74 -3 -60 -7 -57 95 -67 37 -4 116
-18 175 -31 59 -13 108 -24 109 -24 1 0 10 26 19 58 9 31 19 62 21 69 8 19
-163 60 -340 81 -64 8 -68 7 -72 -12z"/>
<path d="M3120 5764 c-100 -18 -250 -55 -250 -62 0 -2 9 -35 20 -72 l20 -67
93 23 c50 13 135 29 187 37 94 13 95 13 98 42 2 16 1 48 -3 72 l-6 43 -42 -1
c-23 -1 -76 -7 -117 -15z"/>
<path d="M4486 5492 l-34 -68 65 -34 c36 -19 108 -63 159 -97 52 -34 98 -64
103 -67 9 -6 91 95 91 112 0 11 -163 118 -268 175 l-82 46 -34 -67z"/>
<path d="M2400 5514 c-81 -45 -280 -176 -280 -184 0 -12 82 -115 89 -113 4 1
43 26 87 56 43 30 114 73 157 97 42 23 77 46 77 51 0 10 -58 129 -63 129 -1 0
-31 -16 -67 -36z"/>
<path d="M5138 5001 l-53 -48 28 -34 c23 -29 129 -167 192 -252 l20 -27 58 36
c31 20 57 40 57 46 0 22 -229 328 -245 328 -2 0 -27 -22 -57 -49z"/>
<path d="M1731 4960 c-65 -79 -180 -240 -181 -251 0 -12 123 -80 130 -72 4 4
31 43 59 85 29 43 80 109 112 147 l59 70 -51 48 c-28 27 -54 49 -57 50 -4 1
-36 -33 -71 -77z"/>
<path d="M3977 4799 c-142 -32 -169 -196 -56 -348 12 -17 21 -32 18 -34 -2 -2
-35 -14 -74 -26 -98 -32 -196 -85 -290 -157 l-81 -61 -34 29 c-342 291 -837
322 -1209 77 -543 -358 -613 -1119 -144 -1570 122 -117 257 -194 428 -245 128
-37 330 -44 465 -16 163 33 295 95 437 204 l64 49 37 -33 c95 -86 258 -171
402 -210 73 -19 109 -23 250 -23 140 1 178 4 250 24 359 96 636 375 726 729
117 462 -104 941 -531 1152 -55 27 -121 55 -147 62 -27 7 -48 15 -48 19 0 3 9
18 20 32 37 47 70 130 70 177 0 105 -70 173 -176 172 -70 -1 -113 -25 -139
-79 -11 -23 -22 -42 -25 -42 -3 0 -14 19 -25 42 -31 65 -104 94 -188 76z
m-1009 -525 c42 -9 109 -28 149 -44 71 -27 222 -120 255 -157 16 -18 16 -21
-13 -63 -49 -73 -105 -189 -132 -276 -89 -282 -42 -611 123 -854 l42 -62 -28
-25 c-100 -84 -228 -151 -359 -185 -112 -30 -297 -29 -410 1 -327 88 -570 347
-632 676 -18 96 -12 278 12 370 59 218 223 425 425 534 176 94 378 124 568 85z
m1147 -76 c36 -46 69 -83 74 -83 4 0 36 36 71 80 35 44 64 82 66 84 8 10 149
-35 229 -73 300 -142 485 -435 485 -767 0 -394 -258 -726 -645 -830 -112 -30
-297 -30 -410 0 -103 27 -266 109 -330 165 -48 42 -49 45 -36 68 142 229 181
345 188 563 8 211 -41 392 -152 569 l-53 86 56 45 c91 73 290 164 384 174 5 1
37 -36 73 -81z m-544 -393 c61 -126 81 -218 82 -365 0 -169 -37 -306 -120
-443 l-35 -58 -25 37 c-44 63 -92 179 -114 271 -18 74 -20 110 -17 223 4 118
9 147 37 230 18 52 50 126 73 164 l41 70 20 -25 c11 -13 37 -60 58 -104z"/>
<path d="M5595 4320 c-11 -5 -37 -16 -57 -24 l-37 -15 25 -73 c14 -40 38 -122
54 -183 l29 -110 33 1 c18 0 50 4 72 8 l38 7 -7 47 c-8 55 -67 261 -89 315
-17 38 -26 42 -61 27z"/>
<path d="M1323 4223 c-26 -81 -57 -194 -77 -285 -3 -14 8 -19 53 -28 31 -6 63
-13 73 -16 13 -4 19 9 32 68 9 40 33 124 52 187 19 62 32 117 27 122 -9 8
-109 49 -121 49 -4 0 -22 -44 -39 -97z"/>
<path d="M5646 3464 c-3 -26 -6 -72 -6 -103 0 -31 -7 -99 -14 -151 -16 -106
-17 -105 53 -115 25 -3 53 -8 62 -11 13 -3 18 9 27 64 7 38 14 109 17 158 3
49 8 115 10 147 l5 57 -74 0 -73 0 -7 -46z"/>
<path d="M1210 3401 c0 -82 25 -310 36 -320 6 -7 144 20 144 28 0 4 -5 34 -11
67 -6 32 -14 115 -17 184 l-7 125 -72 3 -73 3 0 -90z"/>
<path d="M1428 2691 l-68 -26 43 -96 c47 -103 133 -265 145 -273 9 -5 115 60
120 74 2 5 -17 45 -43 89 -25 45 -62 118 -81 164 -20 45 -39 85 -43 88 -3 3
-36 -6 -73 -20z"/>
<path d="M5465 2644 c-19 -42 -35 -78 -35 -80 0 -2 -23 -45 -51 -96 -58 -103
-60 -92 30 -146 43 -25 44 -25 58 -6 20 27 161 316 165 337 2 14 -11 24 -56
43 -33 13 -63 24 -67 24 -5 0 -24 -34 -44 -76z"/>
<path d="M1861 1997 l-54 -51 100 -97 c56 -53 126 -116 157 -139 64 -48 51
-52 115 36 l30 41 -62 50 c-34 27 -101 86 -148 130 l-85 81 -53 -51z"/>
<path d="M5054 2019 c-39 -42 -192 -179 -229 -205 l-29 -22 27 -38 c15 -22 35
-50 45 -63 l19 -23 89 75 c49 41 118 105 154 141 l64 66 -49 50 c-27 27 -52
50 -55 50 -4 0 -19 -14 -36 -31z"/>
<path d="M4355 1533 c-55 -23 -137 -55 -183 -70 -47 -15 -81 -32 -78 -38 2 -6
12 -39 21 -72 l17 -61 116 39 c122 43 272 108 272 118 -1 3 -15 33 -33 67
l-32 60 -100 -43z"/>
<path d="M2513 1506 l-32 -64 78 -35 c125 -57 311 -119 316 -104 11 30 35 113
35 123 0 5 -33 21 -72 33 -40 13 -119 43 -175 67 -57 24 -106 44 -111 44 -4 0
-22 -29 -39 -64z"/>
<path d="M3305 1347 c-2 -7 -6 -40 -8 -74 l-5 -63 106 -1 c148 -1 306 2 311 6
2 2 0 35 -4 74 l-7 70 -195 0 c-141 0 -195 -4 -198 -12z"/>
</g>
</svg>
