<svg xmlns="http://www.w3.org/2000/svg" id="Layer_2" data-name="Layer 2" viewBox="0 0 329.59 472.11">
  <defs>
    <style>
      .cls-1{fill:#eeebdf}.cls-2{fill:#317cc0}.cls-3{fill:#e11f27}.cls-4{fill:#d1d3d4}.cls-5{fill:#e19a4f}.cls-6{fill:#231f20}
    </style>
  </defs>
  <g id="Layer_1-2" data-name="Layer 1">
    <path d="M138.9 472.11 135.14 32.1l-49.1-.56-.95 440.52-14.95-.03.98-455.61 78.85.89 3.88 454.67-14.95.13z" class="cls-2"/>
    <path id="path5534" d="M110.9 113.74c-1.35-.12-4.95-49.94-5.9-51.04-.94-1.07-44.04-4.28-43.93-5.79.11-1.54 43.87-5.78 44.83-6.87.94-1.07 3.89-50.16 5.21-50.04 1.35.12 4.95 49.94 5.9 51.04.94 1.07 44.04 4.28 43.93 5.79-.11 1.54-43.87 5.78-44.83 6.87-.94 1.07-3.89 50.16-5.21 50.04Z" class="cls-3"/>
    <path d="M54.36 292.28h219.67v88.69H54.36z" class="cls-1"/>
    <path d="M58.04 315.51h214v.89h-214zM58.04 304.72h214v.89h-214zM58.04 326.31h214v.89h-214zM58.04 337.1h214v.89h-214zM58.04 347.89h214v.89h-214zM58.04 358.68h214v.89h-214zM58.04 369.47h214v.89h-214z" class="cls-4"/>
    <path d="M93.33 296.75h.88v79.77h-.88zM58.11 296.75h.88v76.17h-.88zM128.54 296.75h.88v79.77h-.88zM163.75 296.75h.88v79.77h-.88zM198.96 296.75h.88v79.77h-.88zM234.18 296.75h.88v79.77h-.88zM269.39 296.75h.88v77.97h-.88z" class="cls-4"/>
    <path d="M266.76 385.71H61.62c-6.62 0-12-5.38-12-12v-74.17c0-6.62 5.38-12 12-12h205.14c6.62 0 12 5.38 12 12v74.17c0 6.62-5.38 12-12 12ZM61.62 297.02c-1.39 0-2.52 1.13-2.52 2.52v74.17c0 1.39 1.13 2.52 2.52 2.52h205.14c1.39 0 2.52-1.13 2.52-2.52v-74.17c0-1.39-1.13-2.52-2.52-2.52H61.62Z" class="cls-3"/>
    <path d="M87.98 332.34v-5.63h-4.56v5.63h-2.63v-13.46h2.63v5.5h4.56v-5.5h2.63v13.46h-2.63ZM101.78 332.34l-.79-2.38h-4.78l-.81 2.38h-2.74l4.9-13.46h2.06l4.92 13.46h-2.74Zm-3.14-9.49-1.7 4.9h3.35l-1.65-4.9ZM114.51 332.34l-5.33-8.26v8.26h-2.63v-13.46h2.34l5.33 8.24v-8.24h2.63v13.46h-2.34ZM134.7 332.34v-7.85l-2.57 5.1h-1.78l-2.59-5.1v7.85h-2.63v-13.46h2.59l3.52 7.28 3.5-7.28h2.59v13.46h-2.63ZM145.34 332.45c-1.44 0-2.65-.49-3.63-1.47-.59-.59-.95-1.27-1.1-2.02-.15-.76-.23-1.87-.23-3.35s.08-2.59.23-3.35c.15-.77.51-1.44 1.1-2.02.98-.98 2.19-1.47 3.63-1.47 2.59 0 4.5 1.51 4.95 4.25h-2.67c-.28-1.15-1-1.91-2.27-1.91-.72 0-1.29.23-1.68.7-.55.59-.66 1.19-.66 3.8s.11 3.21.66 3.8c.4.47.96.7 1.68.7 1.27 0 1.99-.76 2.27-1.91h2.67c-.45 2.74-2.38 4.25-4.95 4.25ZM156.83 332.45c-1.44 0-2.65-.49-3.63-1.47-.59-.59-.95-1.27-1.1-2.02-.15-.76-.23-1.87-.23-3.35s.08-2.59.23-3.35c.15-.77.51-1.44 1.1-2.02.98-.98 2.19-1.47 3.63-1.47 2.59 0 4.5 1.51 4.95 4.25h-2.67c-.28-1.15-1-1.91-2.27-1.91-.72 0-1.29.23-1.68.7-.55.59-.66 1.19-.66 3.8s.11 3.21.66 3.8c.4.47.96.7 1.68.7 1.27 0 1.99-.76 2.27-1.91h2.67c-.45 2.74-2.38 4.25-4.95 4.25ZM169.17 332.45c-2.76 0-4.95-1.87-4.95-4.73v-8.85h2.63v8.75c0 1.55.91 2.48 2.33 2.48s2.34-.93 2.34-2.48v-8.75h2.61v8.85c0 2.86-2.19 4.73-4.95 4.73ZM177.43 332.34v-13.46h2.63V330h6.11v2.34h-8.73ZM188.67 332.34v-13.46h2.63V330h6.11v2.34h-8.73ZM207.58 330.97c-.95.95-2.1 1.47-3.63 1.47s-2.7-.53-3.65-1.47c-1.36-1.36-1.32-3.04-1.32-5.37s-.04-4.01 1.32-5.37c.95-.95 2.12-1.47 3.65-1.47s2.68.53 3.63 1.47c1.36 1.36 1.34 3.04 1.34 5.37s.02 4.01-1.34 5.37Zm-1.95-9.15c-.38-.43-.96-.72-1.68-.72s-1.32.28-1.7.72c-.51.57-.64 1.19-.64 3.78s.13 3.21.64 3.78c.38.43.98.72 1.7.72s1.3-.28 1.68-.72c.51-.57.66-1.19.66-3.78s-.15-3.21-.66-3.78ZM216.72 332.45c-2.76 0-4.95-1.87-4.95-4.73v-8.85h2.63v8.75c0 1.55.91 2.48 2.33 2.48s2.34-.93 2.34-2.48v-8.75h2.61v8.85c0 2.86-2.19 4.73-4.95 4.73ZM233.28 330.92c-1.04 1.06-2.29 1.53-3.8 1.53s-2.65-.49-3.63-1.47c-.59-.59-.95-1.27-1.1-2.02-.15-.76-.23-1.87-.23-3.35s.08-2.59.23-3.35c.15-.77.51-1.44 1.1-2.02.98-.98 2.19-1.47 3.63-1.47 3.06 0 4.71 1.97 5.07 4.31h-2.65c-.32-1.3-1.12-1.97-2.42-1.97-.7 0-1.27.25-1.68.72-.49.62-.64 1.12-.64 3.78s.11 3.18.64 3.8c.4.47.96.7 1.68.7.77 0 1.4-.25 1.87-.76.4-.45.6-1.06.6-1.8v-.51h-2.48v-2.19h5.09v1.97c0 1.97-.36 3.12-1.29 4.1ZM244.58 332.34v-5.63h-4.56v5.63h-2.63v-13.46h2.63v5.5h4.56v-5.5h2.63v13.46h-2.63ZM133.05 311.92c-1.36 0-2.4-.29-3.28-1.18l1.13-1.13c.57.57 1.34.76 2.17.76 1.03 0 1.59-.39 1.59-1.11 0-.31-.09-.58-.28-.76-.18-.16-.38-.25-.79-.32l-1.08-.15c-.77-.11-1.34-.35-1.74-.74-.43-.43-.64-1.01-.64-1.76 0-1.6 1.19-2.72 3.13-2.72 1.23 0 2.13.3 2.9 1.05l-1.11 1.1c-.57-.54-1.25-.62-1.84-.62-.93 0-1.39.52-1.39 1.13 0 .23.08.47.26.64.18.16.47.3.83.35l1.06.15c.82.11 1.34.34 1.71.69.48.45.69 1.11.69 1.9 0 1.74-1.45 2.72-3.33 2.72ZM142.71 304.43v7.41h-1.75v-7.41h-2.34v-1.56h6.44v1.56h-2.34ZM152.09 311.85l-.53-1.59h-3.19l-.54 1.59H146l3.26-8.97h1.37l3.28 8.97h-1.83Zm-2.09-6.33-1.13 3.26h2.23l-1.1-3.26ZM161.05 311.85l-1.75-3.58h-1.26v3.58h-1.75v-8.97h3.52c1.83 0 2.91 1.25 2.91 2.75 0 1.26-.77 2.04-1.64 2.36l2 3.87h-2.03Zm-1.36-7.41h-1.65v2.37h1.65c.77 0 1.27-.49 1.27-1.18s-.5-1.18-1.27-1.18ZM170.55 311.85l-1.75-3.58h-1.26v3.58h-1.75v-8.97h3.52c1.83 0 2.91 1.25 2.91 2.75 0 1.26-.77 2.04-1.64 2.36l2 3.87h-2.03Zm-1.36-7.41h-1.65v2.37h1.65c.77 0 1.27-.49 1.27-1.18s-.5-1.18-1.27-1.18ZM175.28 311.85v-8.97h1.75v8.97h-1.75ZM185.69 311.85l-3.55-5.51v5.51h-1.75v-8.97h1.56l3.55 5.5v-5.5h1.75v8.97h-1.56ZM196.14 310.9c-.69.71-1.52 1.02-2.53 1.02s-1.76-.33-2.42-.98c-.39-.39-.63-.84-.73-1.35-.1-.5-.15-1.25-.15-2.23s.05-1.73.15-2.23c.1-.52.34-.96.73-1.35.66-.66 1.46-.98 2.42-.98 2.04 0 3.14 1.31 3.38 2.87h-1.76c-.21-.87-.74-1.31-1.61-1.31-.47 0-.84.16-1.12.48-.33.42-.43.74-.43 2.52s.08 2.12.43 2.53c.26.31.64.47 1.12.47.52 0 .93-.16 1.25-.5.26-.3.4-.71.4-1.2v-.34h-1.65v-1.46h3.39v1.31c0 1.31-.24 2.08-.86 2.74ZM86.67 355.25c-1.46 0-2.46-.38-3.46-1.38l1.74-1.72c.44.43.85.76 1.72.76 1.29 0 2.12-.76 2.12-2.31v-8.92h2.63v9.04c0 2.97-2.25 4.54-4.75 4.54ZM99.5 355.25c-2.76 0-4.95-1.87-4.95-4.73v-8.85h2.63v8.75c0 1.55.91 2.48 2.33 2.48s2.34-.93 2.34-2.48v-8.75h2.61v8.85c0 2.86-2.19 4.73-4.95 4.73ZM111.46 355.25c-2.04 0-3.59-.43-4.92-1.78l1.7-1.7c.85.85 2 1.13 3.25 1.13 1.55 0 2.38-.59 2.38-1.66 0-.47-.13-.87-.42-1.13-.26-.25-.57-.38-1.19-.47l-1.63-.23c-1.15-.17-2-.53-2.61-1.12-.64-.64-.96-1.51-.96-2.65 0-2.4 1.78-4.08 4.69-4.08 1.85 0 3.19.45 4.35 1.57l-1.66 1.64c-.85-.81-1.87-.93-2.76-.93-1.4 0-2.08.78-2.08 1.7 0 .34.11.7.4.96.26.25.7.45 1.25.53l1.59.23c1.23.17 2 .51 2.57 1.04.72.68 1.04 1.66 1.04 2.86 0 2.61-2.17 4.08-4.99 4.08ZM124.45 344.02v11.12h-2.63v-11.12h-3.52v-2.34h9.66v2.34h-3.52ZM130.47 355.14v-13.46h2.63v13.46h-2.63ZM144.58 355.14l-5.33-8.26v8.26h-2.63v-13.46h2.34l5.33 8.24v-8.24h2.63v13.46h-2.34ZM166.67 355.14h-2.19l-2.48-8.17-2.48 8.17h-2.19l-3.59-13.46h2.74l2.08 8.49 2.46-8.49h1.97l2.46 8.49 2.1-8.49h2.74l-3.61 13.46ZM172.34 355.14v-13.46h2.63v13.46h-2.63ZM178.48 355.14v-13.46h2.63v11.12h6.11v2.34h-8.73ZM189.72 355.14v-13.46h2.63v11.12h6.11v2.34h-8.73ZM200.97 355.14v-13.46h2.63v13.46h-2.63ZM214.77 355.14l-.79-2.38h-4.78l-.81 2.38h-2.74l4.9-13.46h2.06l4.92 13.46h-2.74Zm-3.14-9.49-1.7 4.9h3.35l-1.65-4.9ZM229.11 355.14v-7.85l-2.57 5.1h-1.78l-2.59-5.1v7.85h-2.63v-13.46h2.59l3.52 7.28 3.5-7.28h2.59v13.46h-2.63ZM238.96 355.25c-2.04 0-3.59-.43-4.92-1.78l1.7-1.7c.85.85 2 1.13 3.25 1.13 1.55 0 2.38-.59 2.38-1.66 0-.47-.13-.87-.42-1.13-.26-.25-.57-.38-1.19-.47l-1.63-.23c-1.15-.17-2-.53-2.61-1.12-.64-.64-.96-1.51-.96-2.65 0-2.4 1.78-4.08 4.69-4.08 1.85 0 3.19.45 4.35 1.57l-1.66 1.64c-.85-.81-1.87-.93-2.76-.93-1.4 0-2.08.78-2.08 1.7 0 .34.11.7.4.96.26.25.7.45 1.25.53l1.59.23c1.23.17 2 .51 2.57 1.04.72.68 1.04 1.66 1.04 2.86 0 2.61-2.17 4.08-4.99 4.08ZM99.57 371.22c-1.36 0-2.4-.29-3.28-1.18l1.13-1.13c.57.57 1.34.76 2.17.76 1.03 0 1.59-.39 1.59-1.11 0-.31-.09-.58-.28-.76-.18-.16-.38-.25-.79-.32l-1.08-.15c-.77-.11-1.34-.35-1.74-.74-.43-.43-.64-1.01-.64-1.76 0-1.6 1.19-2.72 3.13-2.72 1.23 0 2.13.3 2.9 1.05l-1.11 1.1c-.57-.54-1.25-.62-1.84-.62-.93 0-1.39.52-1.39 1.13 0 .23.08.47.26.64.18.16.47.3.83.35l1.06.15c.82.11 1.34.34 1.71.69.48.45.69 1.11.69 1.9 0 1.74-1.45 2.72-3.33 2.72ZM105.8 371.14v-8.97h5.91v1.56h-4.16v2.1h3.54v1.56h-3.54v2.18h4.16v1.56h-5.91ZM118.16 367.77h-1.73v3.38h-1.75v-8.97h3.48c1.85 0 2.96 1.27 2.96 2.8s-1.11 2.8-2.96 2.8Zm-.09-4.03h-1.64v2.46h1.64c.79 0 1.3-.49 1.3-1.22s-.5-1.24-1.3-1.24ZM127.29 363.73v7.41h-1.75v-7.41h-2.34v-1.56h6.44v1.56h-2.34ZM132.31 371.14v-8.97h5.91v1.56h-4.16v2.1h3.54v1.56h-3.54v2.18h4.16v1.56h-5.91ZM147.57 371.14v-5.23l-1.71 3.4h-1.18l-1.73-3.4v5.23h-1.75v-8.97h1.73l2.34 4.85 2.33-4.85h1.73v8.97h-1.75ZM156.43 371.14h-3.76v-8.97h3.6c1.75 0 2.77.98 2.77 2.52 0 1-.66 1.64-1.11 1.85.54.25 1.24.82 1.24 2.02 0 1.68-1.15 2.58-2.75 2.58Zm-.29-7.41h-1.71v2.07h1.71c.74 0 1.16-.42 1.16-1.03s-.42-1.03-1.16-1.03Zm.11 3.64h-1.83v2.21h1.83c.79 0 1.17-.5 1.17-1.11s-.38-1.1-1.17-1.1ZM162.22 371.14v-8.97h5.91v1.56h-4.16v2.1h3.54v1.56h-3.54v2.18h4.16v1.56h-5.91ZM175.87 371.14l-1.75-3.58h-1.26v3.58h-1.75v-8.97h3.52c1.83 0 2.91 1.25 2.91 2.75 0 1.26-.77 2.04-1.64 2.36l2 3.87h-2.03Zm-1.36-7.41h-1.65v2.37h1.65c.77 0 1.27-.49 1.27-1.19s-.5-1.18-1.27-1.18ZM187.14 371.22c-1.46 0-2.84-.77-2.86-2.65h1.64c.02.81.58 1.17 1.22 1.17.71 0 1.21-.44 1.21-1.25 0-.74-.45-1.24-1.26-1.24h-.24v-1.42h.24c.79 0 1.13-.49 1.13-1.12 0-.76-.5-1.15-1.1-1.15s-1.07.4-1.11 1.08h-1.64c.04-1.6 1.23-2.56 2.75-2.56 1.59 0 2.73 1.06 2.73 2.57 0 .97-.44 1.53-1.03 1.84.64.34 1.16.96 1.16 2.04 0 1.79-1.31 2.67-2.85 2.67ZM192.7 371.42v-3.87h1.8v2.48l-1.8 1.39ZM201.55 371.14v-1.47l3.35-3.89c.33-.39.47-.67.47-1.08 0-.67-.39-1.12-1.08-1.12-.54 0-1.1.28-1.1 1.15h-1.64c0-1.64 1.2-2.62 2.73-2.62s2.72 1 2.72 2.61c0 .87-.34 1.34-.96 2.05l-2.51 2.91H207v1.47h-5.46ZM212.34 371.22c-1.46 0-2.73-.96-2.73-2.67v-3.78c0-1.71 1.27-2.67 2.73-2.67s2.72.96 2.72 2.67v3.78c0 1.71-1.26 2.67-2.72 2.67Zm1.08-6.43c0-.76-.44-1.22-1.08-1.22s-1.1.47-1.1 1.22v3.74c0 .76.45 1.21 1.1 1.21s1.08-.45 1.08-1.21v-3.74ZM217.75 371.14v-1.47l3.35-3.89c.33-.39.47-.67.47-1.08 0-.67-.39-1.12-1.08-1.12-.54 0-1.1.28-1.1 1.15h-1.64c0-1.64 1.2-2.62 2.73-2.62s2.72 1 2.72 2.61c0 .87-.34 1.34-.96 2.05l-2.51 2.91h3.47v1.47h-5.46ZM228.5 371.22c-1.46 0-2.84-.77-2.86-2.65h1.64c.02.81.58 1.17 1.22 1.17.71 0 1.21-.44 1.21-1.25 0-.74-.45-1.24-1.26-1.24h-.24v-1.42h.24c.79 0 1.13-.49 1.13-1.12 0-.76-.5-1.15-1.1-1.15s-1.07.4-1.11 1.08h-1.64c.04-1.6 1.23-2.56 2.75-2.56 1.59 0 2.73 1.06 2.73 2.57 0 .97-.44 1.53-1.03 1.84.64.34 1.16.96 1.16 2.04 0 1.79-1.31 2.67-2.85 2.67Z" class="cls-6"/>
    <path d="M266.8 382.4h-.04a1.419 1.419 0 1 1 0-2.84h.06c.78 0 1.42.62 1.43 1.4 0 .79-.62 1.43-1.41 1.44h-.04Zm-10.9-1.42c0-.79.64-1.42 1.42-1.42.79 0 1.42.63 1.42 1.42 0 .78-.63 1.42-1.42 1.42-.78 0-1.42-.64-1.42-1.42Zm-9.44 0c0-.79.64-1.42 1.42-1.42.79 0 1.42.63 1.42 1.42 0 .78-.63 1.42-1.42 1.42-.78 0-1.42-.64-1.42-1.42Zm-9.44 0c0-.79.63-1.42 1.42-1.42.79 0 1.42.63 1.42 1.42a1.419 1.419 0 1 1-2.84 0Zm-9.44 0c0-.79.63-1.42 1.42-1.42.78 0 1.42.63 1.42 1.42a1.419 1.419 0 1 1-2.84 0Zm-9.44 0c0-.79.63-1.42 1.42-1.42.78 0 1.42.63 1.42 1.42a1.419 1.419 0 1 1-2.84 0Zm-9.44 0c0-.79.63-1.42 1.42-1.42.78 0 1.42.63 1.42 1.42a1.419 1.419 0 1 1-2.84 0Zm-9.44 0c0-.79.63-1.42 1.42-1.42.78 0 1.42.63 1.42 1.42a1.419 1.419 0 1 1-2.84 0Zm-9.44 0c0-.79.63-1.42 1.42-1.42.78 0 1.42.63 1.42 1.42a1.419 1.419 0 1 1-2.84 0Zm-9.44 0c0-.79.63-1.42 1.42-1.42.78 0 1.42.63 1.42 1.42a1.419 1.419 0 1 1-2.84 0Zm-9.45 0c0-.79.64-1.42 1.43-1.42.78 0 1.42.63 1.42 1.42 0 .78-.64 1.42-1.42 1.42-.79 0-1.43-.64-1.43-1.42Zm-9.44 0c0-.79.64-1.42 1.43-1.42.78 0 1.42.63 1.42 1.42 0 .78-.64 1.42-1.42 1.42-.79 0-1.43-.64-1.43-1.42Zm-9.44 0c0-.79.64-1.42 1.43-1.42.78 0 1.42.63 1.42 1.42 0 .78-.64 1.42-1.42 1.42-.79 0-1.43-.64-1.43-1.42Zm-9.44 0c0-.79.64-1.42 1.42-1.42.79 0 1.43.63 1.43 1.42a1.425 1.425 0 0 1-2.85 0Zm-9.44 0c0-.79.64-1.42 1.42-1.42.79 0 1.43.63 1.43 1.42a1.425 1.425 0 0 1-2.85 0Zm-9.44 0c0-.79.64-1.42 1.42-1.42.79 0 1.43.63 1.43 1.42a1.425 1.425 0 0 1-2.85 0Zm-9.44 0c0-.79.64-1.42 1.42-1.42.79 0 1.42.63 1.42 1.42 0 .78-.63 1.42-1.42 1.42-.78 0-1.42-.64-1.42-1.42Zm-9.44 0c0-.79.64-1.42 1.42-1.42.79 0 1.42.63 1.42 1.42 0 .78-.63 1.42-1.42 1.42-.78 0-1.42-.64-1.42-1.42Zm-9.44 0c0-.79.64-1.42 1.42-1.42.79 0 1.42.63 1.42 1.42 0 .78-.63 1.42-1.42 1.42-.78 0-1.42-.64-1.42-1.42Zm-9.44 0c0-.79.64-1.42 1.42-1.42.79 0 1.42.63 1.42 1.42 0 .78-.63 1.42-1.42 1.42-.78 0-1.42-.64-1.42-1.42Zm-9.44 0c0-.79.63-1.42 1.42-1.42.79 0 1.42.63 1.42 1.42a1.419 1.419 0 1 1-2.84 0Zm-9.44 0c0-.79.63-1.42 1.42-1.42.78 0 1.42.63 1.42 1.42a1.419 1.419 0 1 1-2.84 0Zm-8.46.89a1.42 1.42 0 0 1-.84-1.82c.27-.74 1.08-1.12 1.82-.85.74.27 1.12 1.09.85 1.83-.21.57-.76.93-1.34.93-.16 0-.33-.03-.49-.09Zm214.78-4.9c-.76-.2-1.21-.98-1.01-1.74a1.422 1.422 0 1 1 2.75.73c-.17.64-.74 1.06-1.37 1.06-.12 0-.25-.02-.37-.05Zm-220.47-3.83c0-.79.63-1.43 1.42-1.43a1.425 1.425 0 0 1 0 2.85c-.79 0-1.42-.64-1.42-1.42Zm219.66-6.96c0-.79.64-1.42 1.42-1.42.79 0 1.42.63 1.42 1.42 0 .78-.63 1.42-1.42 1.42-.78 0-1.42-.64-1.42-1.42ZM52.94 363.7c0-.79.63-1.43 1.42-1.43a1.425 1.425 0 0 1 0 2.85c-.79 0-1.42-.64-1.42-1.42Zm219.66-6.96c0-.79.64-1.42 1.42-1.42.79 0 1.42.63 1.42 1.42 0 .78-.63 1.42-1.42 1.42-.78 0-1.42-.64-1.42-1.42Zm-219.66-2.48c0-.79.63-1.43 1.42-1.43a1.425 1.425 0 0 1 0 2.85c-.79 0-1.42-.64-1.42-1.42Zm219.66-6.96c0-.79.64-1.42 1.42-1.42.79 0 1.42.63 1.42 1.42 0 .78-.63 1.42-1.42 1.42-.78 0-1.42-.64-1.42-1.42Zm-219.66-2.49c0-.78.63-1.42 1.42-1.42.78 0 1.42.64 1.42 1.42 0 .79-.64 1.43-1.42 1.43-.79 0-1.42-.64-1.42-1.43Zm219.66-6.95c0-.79.64-1.43 1.42-1.43.79 0 1.42.64 1.42 1.43 0 .78-.63 1.42-1.42 1.42-.78 0-1.42-.64-1.42-1.42Zm-219.66-2.48c0-.79.63-1.43 1.42-1.43a1.425 1.425 0 0 1 0 2.85c-.79 0-1.42-.64-1.42-1.42Zm219.66-6.96c0-.79.64-1.43 1.42-1.43.79 0 1.42.64 1.42 1.43 0 .78-.63 1.42-1.42 1.42-.78 0-1.42-.64-1.42-1.42Zm-219.66-2.49c0-.78.63-1.42 1.42-1.42a1.419 1.419 0 1 1 0 2.84c-.79 0-1.42-.63-1.42-1.42Zm219.66-6.95c0-.79.64-1.43 1.42-1.43.79 0 1.42.64 1.42 1.43 0 .78-.63 1.42-1.42 1.42-.78 0-1.42-.64-1.42-1.42Zm-219.66-2.49c0-.78.63-1.42 1.42-1.42a1.419 1.419 0 1 1 0 2.84c-.79 0-1.42-.63-1.42-1.42Zm219.66-6.96a1.419 1.419 0 1 1 2.84 0c0 .79-.63 1.43-1.42 1.43-.78 0-1.42-.64-1.42-1.43Zm-219.66-2.48c0-.78.63-1.42 1.42-1.42a1.419 1.419 0 1 1 0 2.84c-.79 0-1.42-.63-1.42-1.42Zm219.66-6.96a1.419 1.419 0 1 1 2.84 0c0 .79-.63 1.43-1.42 1.43-.78 0-1.42-.64-1.42-1.43Zm-218.36-1.08c-.76-.21-1.21-.99-1-1.75.2-.76.99-1.2 1.74-1 .76.21 1.21.99 1 1.75a1.42 1.42 0 0 1-1.37 1.05c-.12 0-.25-.02-.37-.05Zm214.5-4.96a1.424 1.424 0 0 1-.85-1.82c.27-.74 1.08-1.12 1.82-.85.74.26 1.12 1.08.85 1.82-.2.58-.75.94-1.33.94-.16 0-.33-.03-.49-.09Zm-208.58-1.76c0-.78.63-1.42 1.42-1.43a1.425 1.425 0 0 1 .01 2.85c-.79 0-1.42-.63-1.43-1.42Zm198.26 0c0-.79.63-1.43 1.42-1.43a1.425 1.425 0 0 1 0 2.85c-.79 0-1.42-.64-1.42-1.42Zm-9.45 0c0-.79.64-1.43 1.43-1.43a1.425 1.425 0 0 1 0 2.85c-.79 0-1.43-.64-1.43-1.42Zm-9.44 0c0-.79.64-1.43 1.42-1.43.79 0 1.43.64 1.43 1.43a1.425 1.425 0 0 1-2.85 0Zm-9.44 0c0-.79.64-1.43 1.43-1.43a1.425 1.425 0 0 1 0 2.85c-.79 0-1.43-.64-1.43-1.42Zm-9.44 0c0-.79.64-1.43 1.42-1.43.79 0 1.42.64 1.42 1.43 0 .78-.63 1.42-1.42 1.42-.78 0-1.42-.64-1.42-1.42Zm-9.44 0c0-.79.64-1.43 1.42-1.43.79 0 1.43.64 1.43 1.43a1.425 1.425 0 0 1-2.85 0Zm-9.44 0c0-.79.64-1.43 1.42-1.43.79 0 1.42.64 1.42 1.43 0 .78-.63 1.42-1.42 1.42-.78 0-1.42-.64-1.42-1.42Zm-9.44 0c0-.79.64-1.43 1.42-1.43.79 0 1.42.64 1.42 1.43 0 .78-.63 1.42-1.42 1.42-.78 0-1.42-.64-1.42-1.42Zm-9.44 0c0-.79.63-1.43 1.42-1.43.79 0 1.42.64 1.42 1.43a1.419 1.419 0 1 1-2.84 0Zm-9.44 0c0-.79.64-1.43 1.42-1.43.79 0 1.42.64 1.42 1.43 0 .78-.63 1.42-1.42 1.42-.78 0-1.42-.64-1.42-1.42Zm-9.44 0c0-.79.64-1.43 1.42-1.43.79 0 1.42.64 1.42 1.43 0 .78-.63 1.42-1.42 1.42-.78 0-1.42-.64-1.42-1.42Zm-9.44 0c0-.79.63-1.43 1.42-1.43a1.425 1.425 0 0 1 0 2.85c-.79 0-1.42-.64-1.42-1.42Zm-9.44 0c0-.79.63-1.43 1.42-1.43a1.425 1.425 0 0 1 0 2.85c-.79 0-1.42-.64-1.42-1.42Zm-9.44 0c0-.79.63-1.43 1.42-1.43a1.425 1.425 0 0 1 0 2.85c-.79 0-1.42-.64-1.42-1.42Zm-9.44 0c0-.79.63-1.43 1.42-1.43a1.425 1.425 0 0 1 0 2.85c-.79 0-1.42-.64-1.42-1.42Zm-9.44 0c0-.79.63-1.43 1.42-1.43a1.425 1.425 0 0 1 0 2.85c-.79 0-1.42-.64-1.42-1.42Zm-9.45 0c0-.79.64-1.43 1.43-1.43a1.425 1.425 0 0 1 0 2.85c-.79 0-1.43-.64-1.43-1.42Zm-9.44 0c0-.79.64-1.43 1.43-1.43a1.425 1.425 0 0 1 0 2.85c-.79 0-1.43-.64-1.43-1.42Zm-9.44 0c0-.79.64-1.43 1.43-1.43a1.425 1.425 0 0 1 0 2.85c-.79 0-1.43-.64-1.43-1.42Zm-9.44 0c0-.79.64-1.43 1.42-1.43.79 0 1.43.64 1.43 1.43a1.425 1.425 0 0 1-2.85 0Zm-9.44 0c0-.79.64-1.43 1.42-1.43.79 0 1.43.64 1.43 1.43a1.425 1.425 0 0 1-2.85 0ZM163.04 254.93a2.506 2.506 0 0 1-1.42-3.24 2.506 2.506 0 0 1 3.24-1.42c1.29.51 1.92 1.96 1.42 3.24a2.5 2.5 0 0 1-2.33 1.59c-.3 0-.61-.05-.91-.17Zm7.87-4.19c-.52-1.28.1-2.73 1.38-3.25 1.28-.52 2.74.1 3.26 1.38.51 1.28-.11 2.74-1.38 3.26-.31.12-.63.18-.94.18-.99 0-1.93-.59-2.32-1.57Zm-17.18.54a2.502 2.502 0 0 1 1.83-4.66c1.28.5 1.91 1.96 1.41 3.24a2.5 2.5 0 0 1-2.33 1.59c-.3 0-.61-.06-.91-.17Zm26.45-4.28c-.51-1.28.11-2.73 1.39-3.25 1.28-.52 2.73.1 3.25 1.38a2.49 2.49 0 0 1-1.38 3.25c-.31.13-.63.19-.94.19-.99 0-1.92-.59-2.32-1.57Zm-35.76.62a2.499 2.499 0 0 1-1.42-3.24 2.502 2.502 0 0 1 4.66 1.83c-.39.98-1.33 1.59-2.33 1.59-.3 0-.61-.06-.91-.18Zm45.04-4.36a2.49 2.49 0 0 1 1.38-3.25c1.28-.52 2.74.1 3.25 1.38a2.49 2.49 0 0 1-1.38 3.25c-.31.13-.62.18-.93.18a2.5 2.5 0 0 1-2.32-1.56Zm-54.35.71a2.498 2.498 0 0 1-1.41-3.24c.5-1.29 1.95-1.92 3.24-1.41a2.496 2.496 0 0 1-.92 4.82c-.3 0-.61-.05-.91-.17Zm63.62-4.45c-.52-1.28.1-2.74 1.38-3.26 1.28-.51 2.74.11 3.26 1.39.51 1.28-.1 2.73-1.39 3.25a2.5 2.5 0 0 1-3.25-1.38Zm-72.93.8c-1.28-.51-1.92-1.96-1.41-3.24.5-1.29 1.95-1.92 3.24-1.42 1.28.51 1.92 1.96 1.41 3.24a2.49 2.49 0 0 1-2.33 1.59c-.3 0-.61-.05-.91-.17Zm82.2-4.54c-.51-1.29.11-2.74 1.39-3.26 1.28-.52 2.74.1 3.25 1.38.52 1.28-.1 2.74-1.38 3.26a2.51 2.51 0 0 1-3.26-1.38Zm-91.51.88a2.494 2.494 0 0 1-1.41-3.24c.5-1.28 1.95-1.91 3.24-1.41a2.49 2.49 0 0 1 1.41 3.24c-.38.99-1.33 1.59-2.32 1.59-.31 0-.62-.06-.92-.18Zm100.79-4.63c-.52-1.28.1-2.73 1.38-3.25 1.28-.52 2.74.1 3.25 1.38.52 1.28-.1 2.74-1.38 3.26a2.494 2.494 0 0 1-3.25-1.39Zm-110.1.98a2.494 2.494 0 0 1-1.41-3.24 2.498 2.498 0 0 1 3.24-1.41c1.29.5 1.92 1.95 1.41 3.24-.38.98-1.32 1.59-2.32 1.59-.31 0-.62-.06-.92-.18Zm119.37-4.72a2.49 2.49 0 0 1 1.38-3.25c1.28-.52 2.74.1 3.26 1.38.51 1.28-.1 2.74-1.38 3.25-.31.13-.63.19-.94.19-.99 0-1.93-.6-2.32-1.57Zm-128.67 1.07a2.502 2.502 0 0 1-1.42-3.24 2.506 2.506 0 0 1 3.24-1.42c1.29.51 1.92 1.96 1.42 3.25-.39.98-1.33 1.58-2.33 1.58-.31 0-.61-.05-.91-.17Zm137.94-4.81c-.51-1.28.11-2.74 1.39-3.25 1.28-.52 2.73.1 3.25 1.38.52 1.28-.1 2.73-1.38 3.25a2.51 2.51 0 0 1-3.26-1.38Zm-147.25 1.16a2.506 2.506 0 0 1-1.42-3.24 2.506 2.506 0 0 1 3.24-1.42c1.29.51 1.92 1.96 1.42 3.24a2.5 2.5 0 0 1-2.33 1.59c-.31 0-.61-.06-.91-.17Zm156.53-4.9c-.52-1.28.1-2.74 1.38-3.26a2.5 2.5 0 0 1 1.87 4.64 2.5 2.5 0 0 1-3.25-1.38Zm-165.84 1.24a2.499 2.499 0 0 1-1.42-3.24c.51-1.28 1.96-1.92 3.24-1.41a2.5 2.5 0 0 1-.91 4.83c-.3 0-.61-.06-.91-.18Zm175.11-4.98a2.5 2.5 0 0 1 1.38-3.26 2.5 2.5 0 0 1 3.26 1.38c.52 1.28-.11 2.74-1.38 3.26-.31.12-.63.18-.94.18a2.5 2.5 0 0 1-2.32-1.56ZM69.95 218.4a2.486 2.486 0 0 1-1.41-3.24c.5-1.29 1.95-1.92 3.24-1.41 1.28.5 1.91 1.95 1.41 3.24-.39.98-1.33 1.58-2.33 1.58-.3 0-.61-.05-.91-.17Zm-9.31-3.65a2.493 2.493 0 0 1-1.41-3.24c.5-1.29 1.95-1.92 3.24-1.42a2.51 2.51 0 0 1 1.41 3.24 2.5 2.5 0 0 1-2.33 1.59c-.3 0-.61-.06-.91-.17Zm203.01-1.43c-.52-1.28.1-2.73 1.38-3.25 1.28-.52 2.73.1 3.25 1.38a2.49 2.49 0 0 1-1.38 3.25c-.31.13-.63.19-.94.19-.99 0-1.92-.59-2.31-1.57Zm-212.32-2.23a2.486 2.486 0 0 1-1.41-3.24c.5-1.28 1.95-1.92 3.24-1.41 1.28.5 1.91 1.95 1.41 3.24a2.5 2.5 0 0 1-2.33 1.59c-.3 0-.61-.06-.91-.18Zm221.59-1.51a2.49 2.49 0 0 1 1.38-3.25c1.28-.52 2.74.1 3.26 1.38.51 1.28-.11 2.74-1.39 3.25-.3.13-.62.19-.93.19-.99 0-1.93-.6-2.32-1.57Zm-230.9-2.14a2.494 2.494 0 0 1-1.41-3.24c.5-1.28 1.95-1.92 3.24-1.41a2.496 2.496 0 0 1-.92 4.82c-.3 0-.61-.05-.91-.17Zm240.17-1.6c-.51-1.28.1-2.74 1.38-3.26 1.28-.51 2.74.11 3.26 1.39a2.49 2.49 0 0 1-1.39 3.25 2.5 2.5 0 0 1-3.25-1.38Zm-249.48-2.05c-1.28-.51-1.92-1.96-1.41-3.24.5-1.29 1.95-1.92 3.24-1.42 1.29.51 1.92 1.96 1.41 3.24-.38.99-1.33 1.59-2.32 1.59-.31 0-.62-.05-.92-.17Zm258.75-1.69c-.51-1.29.11-2.74 1.39-3.26 1.28-.52 2.74.1 3.25 1.38a2.5 2.5 0 0 1-1.38 3.26 2.51 2.51 0 0 1-3.26-1.38ZM23.4 200.14c-1.28-.51-1.92-1.96-1.41-3.24.5-1.29 1.95-1.92 3.24-1.42 1.29.51 1.92 1.96 1.41 3.24-.38.99-1.33 1.59-2.32 1.59-.31 0-.62-.06-.92-.17Zm277.34-1.79c-.52-1.28.1-2.73 1.38-3.25 1.28-.52 2.74.1 3.25 1.38a2.49 2.49 0 0 1-1.38 3.25c-.3.13-.62.19-.93.19-.99 0-1.93-.59-2.32-1.57Zm-285.15-1.28a2.494 2.494 0 0 1-1.41-3.24c.5-1.28 1.95-1.92 3.24-1.41a2.496 2.496 0 0 1-.92 4.82c-.3 0-.61-.05-.91-.17Zm294.42-2.46c-.52-1.28.1-2.74 1.39-3.25 1.28-.52 2.73.1 3.25 1.38.51 1.28-.1 2.74-1.38 3.25-.31.13-.63.19-.94.19-.99 0-1.93-.6-2.32-1.57ZM6.77 190.15a2.51 2.51 0 0 1 .45-3.51c1.1-.84 2.67-.64 3.51.46.84 1.09.64 2.66-.45 3.5a2.508 2.508 0 0 1-3.51-.45Zm312.01-.29a2.49 2.49 0 0 1-.26-3.52 2.49 2.49 0 0 1 3.52-.26c1.05.9 1.16 2.48.26 3.52-.49.58-1.19.87-1.89.87-.58 0-1.16-.2-1.63-.61ZM1.8 180.56c-.42-1.32.29-2.73 1.61-3.15a2.5 2.5 0 0 1 3.15 1.6c.42 1.31-.29 2.72-1.61 3.15a2.506 2.506 0 0 1-3.15-1.6Zm322.67 1.11c-1.31-.46-2-1.88-1.54-3.18.45-1.31 1.88-2 3.18-1.54 1.31.45 1.99 1.88 1.54 3.18a2.508 2.508 0 0 1-2.36 1.68c-.27 0-.55-.05-.82-.14ZM0 170.03a2.517 2.517 0 0 1 2.44-2.57A2.502 2.502 0 0 1 5 169.9a2.487 2.487 0 0 1-2.43 2.56H2.5c-1.35 0-2.46-1.08-2.5-2.43Zm327.02 1.98a2.496 2.496 0 0 1-2.42-2.58 2.494 2.494 0 0 1 2.57-2.42c1.38.04 2.46 1.19 2.42 2.57a2.5 2.5 0 0 1-2.5 2.43h-.07ZM3.03 162.48a2.509 2.509 0 0 1-1.68-3.11c.4-1.33 1.79-2.08 3.11-1.68 1.32.39 2.08 1.78 1.68 3.11a2.499 2.499 0 0 1-2.39 1.78c-.24 0-.48-.03-.72-.1Zm320.44-2.15c-.39-1.32.37-2.71 1.7-3.1a2.5 2.5 0 0 1 3.1 1.69 2.5 2.5 0 0 1-1.69 3.1 2.5 2.5 0 0 1-.71.11c-1.08 0-2.08-.71-2.4-1.8Zm-316.7-7.11a2.495 2.495 0 0 1-.37-3.51 2.498 2.498 0 0 1 3.52-.37c1.07.87 1.24 2.44.37 3.51-.5.61-1.22.93-1.95.93-.55 0-1.1-.18-1.57-.56Zm312.58-.78c-.89-1.06-.75-2.64.31-3.53 1.06-.88 2.64-.75 3.52.31a2.5 2.5 0 0 1-.3 3.52c-.47.4-1.04.59-1.61.59-.72 0-1.42-.3-1.92-.89Zm-7.05-5.04c-1.28-.52-1.91-1.97-1.39-3.25a2.496 2.496 0 0 1 3.25-1.4c1.28.51 1.9 1.97 1.39 3.25-.39.98-1.33 1.57-2.32 1.57-.31 0-.62-.05-.93-.17Zm-298.49-1.25a2.502 2.502 0 0 1 1-3.39c1.21-.66 2.73-.21 3.39 1 .66 1.21.21 2.73-1 3.39-.38.21-.79.31-1.19.31-.89 0-1.75-.48-2.2-1.31Zm289.21-2.46a2.5 2.5 0 0 1-1.4-3.25 2.494 2.494 0 0 1 3.25-1.39c1.28.51 1.9 1.96 1.39 3.24-.39.98-1.33 1.58-2.32 1.58-.31 0-.62-.06-.92-.18ZM22.89 142c-.51-1.29.12-2.74 1.4-3.25 1.28-.51 2.74.12 3.25 1.4.51 1.29-.12 2.74-1.4 3.25-.31.12-.62.18-.92.18-1 0-1.94-.6-2.33-1.58Zm270.84-2.02a2.5 2.5 0 0 1-1.4-3.25 2.494 2.494 0 0 1 3.25-1.39 2.497 2.497 0 0 1-.93 4.82c-.31 0-.62-.06-.92-.18Zm-261.54-1.67c-.52-1.29.11-2.74 1.4-3.25 1.28-.51 2.73.12 3.24 1.4.51 1.29-.12 2.74-1.4 3.25-.3.12-.62.17-.92.17-1 0-1.94-.59-2.32-1.57Zm252.25-2.04a2.496 2.496 0 0 1-1.4-3.24 2.503 2.503 0 0 1 3.25-1.4 2.5 2.5 0 0 1 1.4 3.25c-.39.98-1.33 1.57-2.32 1.57-.31 0-.63-.05-.93-.18Zm-242.96-1.65c-.51-1.29.12-2.74 1.4-3.25 1.28-.51 2.74.12 3.25 1.4.51 1.29-.12 2.74-1.4 3.25-.31.12-.62.18-.93.18-.99 0-1.93-.6-2.32-1.58Zm233.67-2.05a2.494 2.494 0 0 1-1.39-3.25 2.504 2.504 0 0 1 3.25-1.4c1.28.52 1.9 1.97 1.39 3.25-.39.98-1.33 1.58-2.32 1.58-.31 0-.62-.06-.93-.18Zm-224.38-1.64c-.51-1.29.12-2.74 1.4-3.25 1.29-.51 2.74.12 3.25 1.4a2.509 2.509 0 0 1-2.32 3.43c-1 0-1.94-.6-2.33-1.58Zm215.09-2.07a2.503 2.503 0 0 1-1.39-3.25 2.494 2.494 0 0 1 3.25-1.39c1.28.51 1.91 1.96 1.39 3.24-.39.98-1.33 1.58-2.32 1.58-.31 0-.62-.06-.93-.18Zm-205.79-1.62c-.51-1.29.11-2.74 1.4-3.25 1.28-.51 2.74.12 3.24 1.4.52 1.29-.11 2.74-1.4 3.25-.3.12-.61.18-.92.18-.99 0-1.93-.6-2.32-1.58Zm196.51-2.09a2.496 2.496 0 0 1-1.4-3.25c.51-1.28 1.97-1.9 3.25-1.39a2.49 2.49 0 0 1 1.39 3.25c-.38.98-1.32 1.57-2.32 1.57-.31 0-.62-.06-.92-.18Zm-187.22-1.6c-.51-1.29.12-2.74 1.4-3.25 1.29-.51 2.74.12 3.25 1.4a2.509 2.509 0 0 1-2.32 3.43c-1 0-1.94-.6-2.33-1.58Zm177.93-2.1a2.511 2.511 0 0 1-1.4-3.25 2.503 2.503 0 0 1 3.25-1.4 2.5 2.5 0 0 1 1.4 3.25c-.39.98-1.33 1.57-2.32 1.57-.31 0-.63-.05-.93-.17Zm-168.63-1.59a2.496 2.496 0 1 1 4.64-1.85c.51 1.29-.11 2.74-1.4 3.25-.3.12-.61.18-.92.18-1 0-1.93-.6-2.32-1.58ZM238 117.74a2.494 2.494 0 0 1-1.39-3.25 2.504 2.504 0 0 1 3.25-1.4c1.28.52 1.9 1.97 1.39 3.25-.39.98-1.33 1.58-2.32 1.58-.31 0-.62-.06-.93-.18Zm-150.05-1.57c-.51-1.29.12-2.74 1.4-3.25 1.29-.51 2.74.12 3.25 1.4.51 1.29-.12 2.74-1.4 3.25-.31.12-.62.18-.93.18-.99 0-1.93-.6-2.32-1.58Zm140.76-2.14a2.503 2.503 0 0 1-1.39-3.25 2.494 2.494 0 0 1 3.25-1.39 2.49 2.49 0 0 1 1.39 3.25c-.39.98-1.33 1.57-2.32 1.57-.31 0-.62-.06-.93-.18Zm-131.46-1.55a2.496 2.496 0 1 1 4.64-1.85c.51 1.29-.12 2.74-1.4 3.25-.3.12-.61.18-.92.18-.99 0-1.94-.6-2.32-1.58Zm122.18-2.16a2.504 2.504 0 0 1-1.4-3.25c.51-1.28 1.97-1.9 3.25-1.39s1.91 1.97 1.4 3.25c-.39.98-1.33 1.57-2.33 1.57-.3 0-.62-.05-.92-.18Zm-112.89-1.53c-.51-1.28.12-2.74 1.4-3.25 1.29-.51 2.74.12 3.25 1.4.51 1.29-.12 2.74-1.4 3.25-.31.12-.62.18-.93.18-.99 0-1.93-.6-2.32-1.58Zm103.6-2.17c-1.28-.52-1.91-1.97-1.39-3.25a2.496 2.496 0 0 1 3.24-1.4 2.503 2.503 0 0 1-.92 4.83c-.31 0-.63-.06-.93-.18Zm-94.31-1.52c-.5-1.28.12-2.74 1.41-3.25 1.28-.51 2.73.12 3.24 1.4.51 1.29-.12 2.74-1.4 3.25-.3.12-.61.18-.92.18-.99 0-1.94-.6-2.33-1.58Zm85.02-2.19a2.494 2.494 0 0 1-1.39-3.25 2.49 2.49 0 0 1 3.25-1.39c1.28.51 1.9 1.96 1.39 3.24-.39.98-1.33 1.58-2.32 1.58-.31 0-.62-.06-.93-.18Zm-75.72-1.5c-.51-1.28.12-2.74 1.4-3.25 1.28-.51 2.74.12 3.25 1.4a2.5 2.5 0 0 1-1.41 3.25c-.3.12-.61.18-.92.18-.99 0-1.93-.6-2.32-1.58Zm66.43-2.21a2.5 2.5 0 0 1-1.39-3.25c.51-1.28 1.97-1.9 3.25-1.39s1.91 1.97 1.39 3.25c-.39.98-1.33 1.57-2.32 1.57-.31 0-.62-.06-.93-.18Zm-57.14-1.48c-.51-1.28.12-2.74 1.4-3.25a2.5 2.5 0 0 1 3.25 1.41c.51 1.28-.12 2.73-1.4 3.24-.3.12-.61.18-.92.18-1 0-1.94-.6-2.33-1.58Zm47.86-2.22a2.511 2.511 0 0 1-1.4-3.25 2.503 2.503 0 0 1 3.25-1.4c1.28.51 1.91 1.97 1.4 3.25-.39.98-1.33 1.57-2.33 1.57-.3 0-.62-.05-.92-.17Zm-38.56-1.47c-.51-1.28.12-2.74 1.4-3.25 1.28-.5 2.74.12 3.24 1.41.51 1.28-.11 2.73-1.4 3.24-.3.12-.61.18-.92.18-.99 0-1.93-.6-2.32-1.58Zm29.27-2.24a2.494 2.494 0 0 1-1.39-3.25 2.496 2.496 0 0 1 3.24-1.4 2.503 2.503 0 0 1-.92 4.83c-.31 0-.63-.06-.93-.18Zm-19.98-1.45c-.51-1.28.12-2.74 1.4-3.25 1.29-.5 2.74.12 3.25 1.41.51 1.28-.12 2.73-1.4 3.24-.31.12-.62.18-.93.18-.99 0-1.93-.6-2.32-1.58Zm10.69-2.26a2.503 2.503 0 0 1-1.39-3.25 2.49 2.49 0 0 1 3.25-1.39 2.5 2.5 0 0 1 1.39 3.25c-.39.98-1.33 1.57-2.32 1.57-.31 0-.62-.06-.93-.18Z" class="cls-5"/>
    <path id="path3635" d="M165.12 246.5 18.73 189.06c-10.92-4.28-16.94-32.13 2.71-39.93L164.58 92.3l146.75 58.57c13.54 5.4 12.51 31.57-.79 36.94l-145.42 58.68Z" class="cls-1"/>
    <path d="M165.14 250.81 17.27 192.79c-7.21-2.83-12.66-13-12.68-23.66-.02-11.18 5.58-19.82 15.38-23.71l144.62-57.41 148.22 59.17c7.5 2.99 12.18 11.17 12.2 21.33.02 10.8-5.07 19.84-12.97 23.03l-146.9 59.28Zm-.55-154.2L22.92 152.85c-9.01 3.58-10.34 11.72-10.33 16.26.02 7.93 3.94 14.8 7.6 16.23l144.9 56.86 143.95-58.09c5.52-2.23 7.98-9.44 7.97-15.59 0-5.11-1.89-11.82-7.16-13.92L164.58 96.62Z" class="cls-5"/>
    <path id="path3675" d="M280.92 162.91c-6.88-.11-13.74 3.31-13.63 10.17.18 11.26 13.67 7.45 13.44 13.08-.18 4.49-8.68 2.89-12.65-.27l.19 6.53c6.69 4.2 21.02 3.88 21-6.83-.02-12.17-13.4-8.37-13.18-13.61.13-3.14 4.76-4.39 12.27-.66l.21-6.66c-2.27-1.13-4.97-1.7-7.66-1.74Zm-29.64-.04-9.2.04-10.88 31.47 6.53.07 1.93-5.45 10.66-.14 1.8 5.62 9.33.1-10.17-31.71Zm-36.26.93c-6.9-.03-13.57 5.16-13.8 15.05-.27 11.48 5.86 16.64 12.15 17.01 14.32.82 15.49-11.32 15.27-17.45l-14.13-.07-.07 5.93 5.22.02c-1.41 9.56-10.46 6.26-9.97-4.32.55-12.04 8.24-12 10.15-5.63l5.9-5.49c-2.91-3.39-6.85-5.04-10.72-5.06Zm-72.83-.62 8.04 32.08 9.2-.03 10.35-31.74-6.39.06-6.63 20.59-5.5-20.72-9.06-.23Zm52.51.72-21.33-.11-.09 31.32 21.33-.16-.06-6.4-12.4.13.07-6.39 11.07.12.07-6.27h-11.2l.07-6.25 12.4.14.07-6.13Zm-76.31-.66c-6.88-.11-13.75 3.31-13.63 10.17.18 11.26 13.68 7.45 13.45 13.08-.18 4.49-8.69 2.89-12.66-.27l.19 6.53c6.69 4.2 21.02 3.88 21-6.83-.02-12.17-13.39-8.37-13.17-13.61.13-3.14 4.76-4.39 12.27-.66l.21-6.66c-2.27-1.13-4.97-1.7-7.66-1.74Zm-26.45.16-9.2.04-10.88 31.47 6.53.07 1.93-5.45 10.66-.14 1.8 5.62 9.33.1-10.17-31.71Zm-41.05-.19-.09 31.85 19.99.09-.06-6.26-10.93-.12.15-25.19-9.06-.37Zm194.53 10.25 2.97 8.96-6.26-.07 3.29-8.89ZM86.09 174l2.97 8.96-6.26-.07 3.29-8.89Z" class="cls-3"/>
    <path d="M118.66 215.11v-11.18h2.14l6.59 8.05h-1.04v-8.05h2.55v11.18h-2.14l-6.59-8.05h1.04v8.05h-2.56ZM137.74 213.03h6.08v2.08h-8.65v-11.18h8.45v2.08h-5.88v7.03Zm-.19-4.61h5.38v2.03h-5.38v-2.03ZM153.57 215.11l-4.84-11.18h2.81l4.22 9.9h-1.64l4.28-9.9h2.57l-4.84 11.18h-2.55ZM163.74 215.11l4.97-11.18h2.55l5.01 11.18h-2.71l-4.1-9.87h1.04l-4.1 9.87h-2.65Zm2.51-2.4.65-1.96h5.78l.67 1.96h-7.11ZM181.38 215.11v-11.18h5.08c1.21 0 2.28.23 3.21.69.93.46 1.65 1.11 2.17 1.95.52.84.78 1.82.78 2.95s-.26 2.11-.78 2.95-1.25 1.49-2.17 1.95-2 .69-3.21.69h-5.08Zm2.6-2.11h2.35c.75 0 1.39-.14 1.94-.42.55-.28.97-.69 1.28-1.21.3-.53.46-1.14.46-1.84s-.15-1.33-.46-1.85c-.3-.52-.73-.92-1.28-1.21s-1.19-.42-1.94-.42h-2.35v6.96ZM196.72 215.11l4.97-11.18h2.55l5.01 11.18h-2.71l-4.1-9.87h1.04l-4.1 9.87h-2.65Zm2.51-2.4.65-1.96h5.78l.67 1.96h-7.11ZM85.69 155.92v-11.81h1.25v11.81h-1.25ZM91.9 155.92v-11.81h1.03l8.15 10.26h-.54v-10.26h1.23v11.81h-1.03l-8.13-10.26h.54v10.26H91.9Z" class="cls-2"/>
    <circle cx="64.82" cy="119.9" r="16.66" class="cls-4"/>
    <path d="m57.67 127.32-4.98-15.17h3.64l4.31 13.44h-1.82l4.51-13.44h3.25l4.33 13.44h-1.76l4.42-13.44h3.36l-4.99 15.17h-3.73l-3.86-11.79h1l-3.94 11.79h-3.75Z" class="cls-3"/>
    <circle cx="98.15" cy="119.9" r="16.66" class="cls-4"/>
    <path d="M96.16 124.51h8.26v2.82H92.67v-15.17h11.47v2.82h-7.98v9.54Zm-.26-6.26h7.3V121h-7.3v-2.75Z" class="cls-3"/>
    <circle cx="131.47" cy="119.9" r="16.66" class="cls-4"/>
    <path d="M124.32 127.32v-15.17h6.89c1.65 0 3.1.31 4.36.94 1.26.63 2.24 1.51 2.95 2.64.71 1.13 1.06 2.47 1.06 4s-.35 2.86-1.06 4a7.134 7.134 0 0 1-2.95 2.64c-1.26.63-2.71.94-4.36.94h-6.89Zm3.53-2.86h3.19c1.01 0 1.89-.19 2.63-.57a4.11 4.11 0 0 0 1.73-1.65c.41-.72.62-1.55.62-2.5s-.21-1.81-.62-2.51a4.21 4.21 0 0 0-1.73-1.64c-.74-.38-1.62-.57-2.63-.57h-3.19v9.45Z" class="cls-3"/>
    <circle cx="164.8" cy="119.9" r="16.66" class="cls-4"/>
    <path d="M157.65 127.32v-15.17h6.89c1.65 0 3.1.31 4.36.94 1.26.63 2.24 1.51 2.95 2.64.71 1.13 1.06 2.47 1.06 4s-.35 2.86-1.06 4a7.134 7.134 0 0 1-2.95 2.64c-1.26.63-2.71.94-4.36.94h-6.89Zm3.53-2.86h3.19c1.01 0 1.89-.19 2.63-.57a4.11 4.11 0 0 0 1.73-1.65c.41-.72.62-1.55.62-2.5s-.21-1.81-.62-2.51a4.21 4.21 0 0 0-1.73-1.64c-.74-.38-1.62-.57-2.63-.57h-3.19v9.45Z" class="cls-3"/>
    <circle cx="198.13" cy="119.9" r="16.66" class="cls-4"/>
    <path d="M196.37 127.32v-15.17h3.53v15.17h-3.53Z" class="cls-3"/>
    <circle cx="231.46" cy="119.9" r="16.66" class="cls-4"/>
    <path d="M224.5 127.32v-15.17h2.9l8.95 10.92h-1.41v-10.92h3.47v15.17h-2.9l-8.95-10.92h1.41v10.92h-3.47Z" class="cls-3"/>
    <circle cx="264.78" cy="119.9" r="16.66" class="cls-4"/>
    <path d="M265.55 127.58c-1.2 0-2.3-.19-3.32-.57a7.515 7.515 0 0 1-2.62-1.64 7.56 7.56 0 0 1-1.72-2.49c-.41-.95-.62-2-.62-3.14s.21-2.19.62-3.14c.41-.95.99-1.78 1.75-2.49.75-.71 1.63-1.25 2.64-1.64 1.01-.38 2.12-.57 3.34-.57 1.34 0 2.55.22 3.63.67 1.08.45 1.98 1.1 2.72 1.95l-2.23 2.08c-.56-.59-1.17-1.03-1.82-1.31a5.39 5.39 0 0 0-2.15-.42c-.72 0-1.39.12-1.99.36a4.513 4.513 0 0 0-2.59 2.55c-.24.59-.36 1.25-.36 1.97s.12 1.34.36 1.94c.24.6.58 1.12 1.02 1.55.44.43.96.77 1.56 1.02s1.26.37 1.98.37 1.37-.12 2.03-.35c.66-.23 1.3-.61 1.92-1.15l1.99 2.54c-.84.64-1.8 1.12-2.88 1.44-1.08.33-2.17.49-3.25.49Zm2.93-2.38v-5.7h3.21v6.16l-3.21-.46Z" class="cls-3"/>
    <path d="M114.77 142.79c-.36-.37-.54-.71-.54-1.04s.1-.57.29-.73c.19-.16.45-.32.78-.47a14.121 14.121 0 0 1 2.24-.83c.43-.12.8-.22 1.1-.31.87-.24 1.42-.36 1.66-.36s.36.04.36.13-.08.2-.23.33-.23.21-.23.23.04.03.11.03.18-.02.31-.06c4.16-.87 8.18-1.3 12.07-1.3s6.58.63 8.07 1.88c.04.04.18.16.42.36.54.52.81.81.81.88 0 .19-.23.29-.68.29-5.26 0-9.62.18-13.09.55-.35 0-.52.05-.52.16 0 .04.08.11.23.21.15.1.23.24.23.44s-.14.38-.42.55l-4.12 3.8c-.17.11-.26.2-.26.28s.08.11.23.11l.52-.06c1-.09 1.94-.13 2.83-.13 3.25 0 4.87.73 4.87 2.18 0 .11-.02.18-.05.21-.03.03-.31.06-.84.1-.53.03-2.31.27-5.33.7s-4.77.73-5.25.88c-.48.15-.84.37-1.1.65-2.79 3.66-4.36 5.93-4.71 6.82-.02 0-.06.17-.11.52s-.1.52-.15.52c-.19 0-.58-.19-1.17-.57s-.88-.72-.88-1.02.04-.6.11-.88c.08-.28.17-.6.29-.96.12-.36.48-1.05 1.07-2.08.6-1.03 1.34-2.01 2.23-2.94.04 0 .06-.04.06-.11s-.13-.36-.39-.84c-.26-.49-.39-.77-.39-.86 0-.43.15-.71.46-.83.3-.12 1.2-.31 2.7-.57l.42-.06h.03c.17 0 .51-.25 1.01-.75 3.36-2.99 5.33-4.63 5.91-4.94.22-.11.33-.19.33-.26s-.06-.1-.2-.1-.24.01-.32.03c-3.68.52-6.77.78-9.26.78-.65 0-1.15-.18-1.51-.55ZM135.15 156.89l.26-2.08c0-.06-.02-.1-.05-.1s-.09.04-.18.13c-.28.3-.64.68-1.07 1.12s-1.17 1.04-2.22 1.79c-1.05.75-1.9 1.12-2.55 1.12-.11-.02-.24-.06-.41-.11-.16-.05-.37-.23-.63-.54-.26-.3-.39-.74-.39-1.3s.43-1.42 1.28-2.58c.85-1.16 1.88-2.29 3.07-3.41s2.52-2.08 3.98-2.91 2.73-1.23 3.82-1.23c.41.02.74.31.97.88.22-.22.41-.32.58-.32s.38.13.62.39c.13.02.26.09.39.21s.19.29.19.5-.15.46-.45.71c-.45.56-.99 1.2-1.59 1.92-.61.71-1.04 1.23-1.3 1.54s-.53.67-.81 1.06c-.48.67-.74 1.21-.78 1.62 2.21-1.06 5.68-3.35 10.43-6.85.2.15.29.34.29.55s-.09.4-.26.55c-.17.15-.38.34-.63.55-.25.22-.74.64-1.48 1.27s-1.44 1.23-2.13 1.8c-.68.57-1.46 1.21-2.34 1.92s-1.66 1.3-2.35 1.8c-1.67 1.19-2.71 1.79-3.12 1.79s-.7-.13-.88-.39c-.17-.26-.26-.73-.26-1.4Zm-3.31-1.36c.26 0 1.06-.53 2.39-1.59a90.24 90.24 0 0 0 3.78-3.18l1.82-1.59c.09-.09.13-.15.13-.18s-.03-.05-.1-.05c-.82 0-1.89.47-3.22 1.41-1.32.94-2.46 1.94-3.43 2.99-.96 1.05-1.45 1.76-1.45 2.13 0 .04.02.06.06.06Z" class="cls-2"/>
    <path d="M157.62 136.14c1.13 0 1.69.3 1.69.91 0 .89-.85 2.23-2.55 4.03-1.7 1.8-3.4 3.37-5.12 4.71l-2.53 2.05c-.13.15-.19.27-.19.36s.05.13.16.13c1.71-1.1 3.25-1.68 4.61-1.72.26 0 .5.08.71.23.74.61 1.1 1.31 1.1 2.11s-.82 2.15-2.47 4.06c.69-.17 1.64-.62 2.84-1.35 1.2-.73 2.23-1.41 3.07-2.06l1.27-.97c.19.15.29.34.29.55s-.1.41-.29.58c-3.57 3.31-6.28 4.97-8.12 4.97-.13 0-.32-.02-.58-.06l.06-.1c-1.28 1.26-2.56 2.3-3.83 3.13-1.28.83-2.33 1.25-3.15 1.25-2.03 0-3.05-.69-3.05-2.08 0-.69.22-1.51.67-2.45s.98-1.84 1.61-2.7c.63-.85 1.26-1.66 1.9-2.42s1.18-1.36 1.62-1.82c.44-.45.67-.67.67-.65 1.54-1.78 2.87-3.42 4.01-4.92s1.89-2.58 2.26-3.22c.37-.64.74-1.19 1.1-1.64.37-.45.68-.72.93-.8.25-.08.69-.11 1.32-.11Zm-13.06 20.98c.89 0 2.04-.63 3.46-1.88 1.42-1.26 2.63-2.57 3.64-3.93 1.01-1.36 1.51-2.25 1.51-2.66 0-.06-.03-.1-.1-.1-1.13 0-2.4.61-3.83 1.82-1.43 1.21-2.6 2.48-3.52 3.8-.92 1.32-1.38 2.23-1.38 2.73 0 .15.08.23.23.23Z" class="cls-2"/>
    <path d="M163.37 155.36c3.23-1.73 6.78-4.04 10.65-6.92.19.15.29.34.29.55s-.11.42-.32.62c-.22.19-.53.48-.93.84-.4.37-1.16 1.03-2.29 1.98-1.13.95-2.18 1.82-3.15 2.6-2.56 2.06-4.44 3.27-5.65 3.64-.39.11-.81.16-1.27.16-.74 0-1.1-.57-1.1-1.72 0-.24.1-.6.31-1.07.21-.48.32-.75.36-.83.03-.08.06-.14.08-.18.02-.04.04-.08.06-.11.02-.03.03-.07.03-.11s-.06-.06-.19-.06c-.11 0-.47.29-1.07.86-.61.57-1.11 1.03-1.51 1.38-.4.35-.86.67-1.36.97-.51.3-.93.46-1.25.46-.87 0-1.3-.4-1.3-1.2 0-.48.16-1.06.49-1.75.76-1.6 1.89-3.2 3.41-4.81 1.52-1.6 2.6-2.41 3.25-2.44.24 0 .45.09.65.26s.29.37.29.58-.22.54-.65.97c-.43.43-.98.99-1.64 1.67-.66.68-1.13 1.25-1.4 1.71-.27.45-.41.76-.41.91s.09.23.26.23.49-.14.94-.42c1.23-.84 2.65-1.88 4.24-3.12s2.61-2.13 3.07-2.7c.11-.39.43-.58.97-.58 1.04 0 1.56.18 1.56.55 0 .15-.51.71-1.53 1.69-3.05 2.92-4.58 4.73-4.58 5.42 0 .11.05.16.15.16s.28-.06.54-.19Z" class="cls-2"/>
    <path d="M172.92 156.11c.71 0 2.13-.64 4.24-1.92 2.11-1.28 4.03-2.55 5.77-3.83l2.63-1.92c.19.15.29.34.29.55s-.11.42-.32.62c-.22.19-.53.48-.93.84-.4.37-1.16 1.03-2.29 1.98-1.13.95-2.18 1.82-3.15 2.6-2.56 2.06-4.44 3.27-5.65 3.64-.39.11-.79.16-1.2.16s-.74-.03-.97-.1c-.24-.06-.5-.21-.78-.42-.56-.48-.84-1.54-.84-3.18 0-.46.19-1.15.58-2.08s1.03-2.06 1.93-3.38c.9-1.32 1.95-2.64 3.15-3.96 1.2-1.32 2.73-2.64 4.58-3.96 1.85-1.32 3.83-2.39 5.93-3.22.32-.11.62-.16.88-.16s.5.11.71.34c.22.23.37.46.45.7l.16.32c0 .5-.77 1.59-2.31 3.28-1.58 1.75-3.41 3.43-5.47 5.02-2.07 1.59-3.99 2.95-5.76 4.08-1.45.95-2.18 1.95-2.18 2.99 0 .67.18 1.01.55 1.01Zm2.92-6.72c.54 0 2.18-1.33 4.92-3.99 2.74-2.66 4.11-4.15 4.11-4.45l-.03-.06-.55.26c-1.13.74-2.63 1.99-4.5 3.77s-3.17 3.16-3.88 4.16c-.09.11-.13.19-.13.24s.02.08.06.08Z" class="cls-2"/>
    <path d="M188.83 153.06c.61 0 1.55-.37 2.84-1.1 1.29-.74 2.42-1.47 3.39-2.21l1.46-1.14c.19.15.29.34.29.55s-.1.41-.29.58c-3.57 3.31-6.28 4.97-8.12 4.97-.13 0-.32-.02-.58-.06-2.45 2.84-4.55 4.25-6.3 4.25-1.17-.17-1.91-.58-2.21-1.23-.17-.32-.26-.74-.26-1.23 0-1.43.82-3.13 2.47-5.12 1.65-1.98 3.71-3.44 6.2-4.37.22 0 .38.05.49.15.11.1.21.15.29.16.09.01.2-.03.34-.13s.33-.15.57-.16c.24-.01.49.12.75.41.35.28.52.63.52 1.04 0 1.21-.62 2.76-1.85 4.64Zm-7.08 3.77c.69 0 1.55-.45 2.57-1.36 1.02-.91 1.55-1.54 1.59-1.88-.26-.22-.54-.61-.83-1.19-.29-.57-.45-.86-.47-.86-.67.63-1.27 1.35-1.79 2.18-.82 1.39-1.23 2.34-1.23 2.86 0 .17.05.26.16.26Zm7.02-7.96c-.22 0-.67.34-1.35 1.01-.68.67-1.02 1.14-1.02 1.4 0 .06.06.19.19.39s.23.29.29.29c.37 0 .78-.44 1.25-1.33.47-.89.7-1.4.7-1.54s-.02-.21-.06-.21Z" class="cls-2"/>
    <path d="M199.78 155.36c3.23-1.73 6.78-4.04 10.65-6.92.19.15.29.34.29.55s-.11.42-.32.62c-.22.19-.53.48-.93.84-.4.37-1.16 1.03-2.29 1.98-1.13.95-2.18 1.82-3.15 2.6-2.56 2.06-4.44 3.27-5.65 3.64-.39.11-.81.16-1.27.16-.74 0-1.1-.57-1.1-1.72 0-.24.1-.6.31-1.07.21-.48.32-.75.36-.83.03-.08.06-.14.08-.18.02-.04.04-.08.06-.11.02-.03.03-.07.03-.11s-.06-.06-.19-.06c-.11 0-.47.29-1.07.86-.61.57-1.11 1.03-1.51 1.38-.4.35-.86.67-1.36.97-.51.3-.93.46-1.25.46-.87 0-1.3-.4-1.3-1.2 0-.48.16-1.06.49-1.75.76-1.6 1.89-3.2 3.41-4.81 1.52-1.6 2.6-2.41 3.25-2.44.24 0 .45.09.65.26s.29.37.29.58-.22.54-.65.97c-.43.43-.98.99-1.64 1.67-.66.68-1.13 1.25-1.4 1.71-.27.45-.41.76-.41.91s.09.23.26.23.49-.14.94-.42c1.23-.84 2.65-1.88 4.24-3.12s2.61-2.13 3.07-2.7c.11-.39.43-.58.97-.58 1.04 0 1.56.18 1.56.55 0 .15-.51.71-1.53 1.69-3.05 2.92-4.58 4.73-4.58 5.42 0 .11.05.16.15.16s.28-.06.54-.19Z" class="cls-2"/>
    <path d="M208.82 155.88c.75 0 1.44-.46 2.08-1.38.64-.92 1.09-1.85 1.35-2.79s.39-1.69.39-2.26c0-.15-.11-.23-.34-.23s-.49.12-.8.36l-4.25 3.28c-.3.17-.65.26-1.04.26s-.58-.14-.58-.42c0-.19.03-.32.08-.39.05-.06.21-.17.47-.32 1.6-1.1 3.79-2.9 6.56-5.39.32-.43.62-.65.88-.65s.69.08 1.3.24c.61.16.91.35.91.57 0 1.3-.12 2.48-.36 3.54s-.48 1.87-.73 2.42c-.25.55-.37.85-.37.89s.02.06.06.06.13-.03.26-.1c1.62-.82 3.69-2.17 6.2-4.03l.78-.58c.19.15.29.34.29.55s-.1.41-.29.58c-.04 0-.6.45-1.67 1.36-1.07.91-2.26 1.9-3.57 2.97-1.31 1.07-2.71 2.05-4.21 2.94s-2.65 1.33-3.48 1.33c-2.04 0-3.05-1.22-3.05-3.67 0-.19.08-.37.24-.54.16-.16.37-.24.63-.24 0 .11.06.28.18.5.12.23.24.42.37.57.39.37.96.55 1.71.55Z" class="cls-2"/>
    <path d="M113.64 307.09c1.57 2.2 3.72 4.75 3.78 5 .06-.25 2.25-2.8 3.81-5s.54-4.44-1.53-4.44c-2.07 0-2.27 1.83-2.27 1.83s-.2-1.83-2.27-1.83-3.09 2.24-1.52 4.44ZM207.15 307.09c1.57 2.2 3.72 4.75 3.78 5 .06-.25 2.25-2.8 3.81-5s.54-4.44-1.53-4.44c-2.07 0-2.27 1.83-2.27 1.83s-.2-1.83-2.27-1.83-3.09 2.24-1.52 4.44Z" class="cls-6"/>
    <path id="path5538" d="M136.84 82.75c-.69.69-25.1-19.55-26.08-19.55-.98 0-25.21 20.45-25.9 19.76-.69-.69 19.55-25.1 19.55-26.08 0-.98-20.45-25.21-19.76-25.9.69-.69 25.1 19.55 26.08 19.55.98 0 25.21-20.45 25.9-19.76.69.69-19.55 25.1-19.55 26.08 0 .98 20.45 25.21 19.76 25.9Z" class="cls-3"/>
  </g>
</svg>
