<svg id="Layer_2" data-name="Layer 2" xmlns="http://www.w3.org/2000/svg" viewBox="0 0 89.88 62.8">
  <defs>
    <style>
      .cls-1 {
        fill: #e11f27;
      }
    </style>
  </defs>
  <g id="Layer_1-2" data-name="Layer 1">
    <path class="cls-1" d="M69.71,10.28c.36-.49,.72-.98,1.06-1.46C73.88,4.44,71.85,0,67.73,0c-4.12,0-4.51,3.64-4.51,3.64h0S62.83,0,58.71,0c-4.12,0-6.14,4.45-3.03,8.82,.34,.48,.7,.97,1.06,1.45-4.49,1.13-8.53,3.4-11.8,6.48-4.78-4.51-11.21-7.28-18.28-7.28C11.96,9.48,0,21.44,0,36.14s11.96,26.66,26.66,26.66c7.07,0,13.51-2.77,18.28-7.28,4.78,4.51,11.21,7.28,18.28,7.28,14.7,0,26.66-11.96,26.66-26.66,0-12.46-8.6-22.95-20.17-25.86Zm-24.77,38.9c-2.63-3.68-4.19-8.18-4.19-13.04s1.56-9.36,4.19-13.04c2.63,3.68,4.19,8.18,4.19,13.04s-1.56,9.36-4.19,13.04ZM4.19,36.14c0-12.39,10.08-22.47,22.47-22.47,5.99,0,11.44,2.36,15.47,6.2-3.48,4.51-5.56,10.15-5.56,16.27s2.08,11.77,5.56,16.27c-4.03,3.84-9.48,6.2-15.47,6.2-12.39,0-22.47-10.08-22.47-22.47Zm59.03,22.47c-5.99,0-11.44-2.36-15.47-6.2,3.48-4.51,5.56-10.15,5.56-16.27s-2.08-11.77-5.56-16.27c3.19-3.04,7.27-5.15,11.81-5.89,1.95,2.5,3.56,4.49,3.64,4.79,.07-.3,1.71-2.29,3.68-4.79,10.66,1.75,18.82,11.02,18.82,22.17,0,12.39-10.08,22.47-22.47,22.47Z"/>
  </g>
</svg>
