<svg id="Layer_2" data-name="Layer 2" xmlns="http://www.w3.org/2000/svg" xmlns:xlink="http://www.w3.org/1999/xlink" viewBox="0 0 95.88 95.88">
  <defs>
    <style>
      .cls-1, .cls-2 {
        fill: none;
      }

      .cls-3 {
        clip-path: url(#clippath);
      }

      .cls-2 {
        stroke: #231f20;
        stroke-dasharray: 0 0 5.62 5.62;
        stroke-miterlimit: 10;
        stroke-width: 2.1px;
      }

      .cls-4 {
        fill: #fff;
      }

      .cls-5 {
        fill: #317cc0;
      }

      .cls-6 {
        fill: #231f20;
      }
    </style>
    <clipPath id="clippath">
      <path class="cls-1" d="M93.33,47.94c0,25.07-20.32,45.39-45.39,45.39S2.55,73.01,2.55,47.94,22.87,2.55,47.94,2.55s45.39,20.32,45.39,45.39ZM47.94,11.72C27.94,11.72,11.72,27.94,11.72,47.94s16.22,36.22,36.22,36.22,36.22-16.22,36.22-36.22S67.94,11.72,47.94,11.72Z"/>
    </clipPath>
  </defs>
  <g id="Layer_1-2" data-name="Layer 1">
    <g>
      <g>
        <circle class="cls-6" cx="47.94" cy="47.94" r="47.94"/>
        <circle class="cls-4" cx="47.94" cy="47.94" r="33.9"/>
        <circle class="cls-2" cx="47.94" cy="47.94" r="30.41" transform="translate(-9.73 83.58) rotate(-76.72)"/>
        <g class="cls-3">
          <g>
            <g>
              <g id="_Radial_Repeat_" data-name="&amp;lt;Radial Repeat&amp;gt;">
                <polygon class="cls-5" points="77.19 119.85 47.94 47.87 18.69 119.85 77.19 119.85"/>
              </g>
              <g id="_Radial_Repeat_-2" data-name="&amp;lt;Radial Repeat&amp;gt;">
                <polygon class="cls-5" points="-23.97 77.19 48.01 47.94 -23.97 18.69 -23.97 77.19"/>
              </g>
              <g id="_Radial_Repeat_-3" data-name="&amp;lt;Radial Repeat&amp;gt;">
                <polygon class="cls-5" points="18.69 -23.98 47.94 48 77.19 -23.98 18.69 -23.98"/>
              </g>
              <g id="_Radial_Repeat_-4" data-name="&amp;lt;Radial Repeat&amp;gt;">
                <polygon class="cls-5" points="119.85 18.69 47.88 47.94 119.85 77.19 119.85 18.69"/>
              </g>
            </g>
            <g>
              <g id="_Radial_Repeat_-5" data-name="&amp;lt;Radial Repeat&amp;gt;">
                <polygon class="cls-4" points="-9.47 3.65 47.99 47.99 3.65 -9.47 -9.47 3.65"/>
              </g>
              <g id="_Radial_Repeat_-6" data-name="&amp;lt;Radial Repeat&amp;gt;">
                <polygon class="cls-4" points="92.23 -9.47 47.89 47.99 105.35 3.65 92.23 -9.47"/>
              </g>
              <g id="_Radial_Repeat_-7" data-name="&amp;lt;Radial Repeat&amp;gt;">
                <polygon class="cls-4" points="105.35 92.23 47.89 47.89 92.23 105.35 105.35 92.23"/>
              </g>
              <g id="_Radial_Repeat_-8" data-name="&amp;lt;Radial Repeat&amp;gt;">
                <polygon class="cls-4" points="3.65 105.35 47.99 47.89 -9.47 92.23 3.65 105.35"/>
              </g>
            </g>
          </g>
        </g>
        <path d="M45.86,87.86c-.99,0-1.8,.78-1.81,1.78,0,.99,.78,1.8,1.78,1.81,.9,0,1.64-.64,1.78-1.5,.02,0,.04,.01,.07,.02-.01,.33-.06,.79-.19,1.2-.25,.76-.53,1.35-.53,1.35l1.93,.02s-.59-1.53-.67-2.56c.02,0,.04,0,.06-.02,.13,.86,.86,1.52,1.75,1.53,.99,.01,1.8-.78,1.81-1.78,0-.99-.78-1.8-1.78-1.81-.41,0-.78,.13-1.08,.35-.01-.02-.02-.04-.04-.06,.49-.32,.82-.86,.83-1.49,0-.99-.78-1.8-1.78-1.81-.99,0-1.8,.78-1.81,1.78,0,.63,.31,1.18,.8,1.51-.01,.02-.03,.04-.04,.06-.3-.23-.67-.37-1.08-.38Z"/>
        <polygon class="cls-4" points="10.74 47.98 7.03 44.79 3.21 47.96 7.02 51.09 10.74 47.98"/>
        <path d="M47.94,3.21h0s-.92,1.18-1.93,2.39c-1.01,1.21-1.71,1.85-1.21,3,.5,1.16,1.96,1.08,2.83,.56,0,0,.19,.2-.76,1.76h2.13c-.95-1.56-.76-1.76-.76-1.76,.87,.51,2.33,.6,2.83-.56,.51-1.16-.2-1.79-1.21-3-1.01-1.21-1.93-2.39-1.93-2.39Z"/>
        <path class="cls-4" d="M88.77,45.17c-1.61,1.14-3.47,2.72-3.65,2.76,.18,.04,2.05,1.64,3.66,2.79,1.61,1.14,3.24,.4,3.24-1.12,0-1.52-1.34-1.66-1.34-1.66h0s1.34-.15,1.34-1.66c0-1.52-1.64-2.26-3.24-1.11Z"/>
      </g>
      <path class="cls-6" d="M67.13,41.14c.13-.34,.1-.73-.13-1.04-.15-.21-.37-.34-.6-.41-.16-.18-.33-.34-.52-.48l-16.05-11.76c-1.15-.84-2.7-.84-3.86,0,0,0,0,0,0,0l-16.05,11.76c-.19,.14-.37,.3-.52,.48-.23,.06-.45,.2-.6,.41-.23,.31-.26,.71-.13,1.04-.05,.23-.08,.46-.08,.7v19.03c0,1.8,1.46,3.26,3.26,3.26H63.94c1.8,0,3.26-1.46,3.26-3.26v-19.03c0-.24-.03-.47-.08-.7Zm-2.1,19.72l-11.53-9.54,11.53-8.44v17.98ZM30.76,42.89l11.53,8.44-11.53,9.54v-17.98Zm17.13,6.63l15.05,12.44h-30.09l15.05-12.44Zm-.64-20.31h0c.38-.28,.9-.28,1.28,0l15.74,11.53-12.51,9.15-3.17-2.62c-.4-.33-.98-.33-1.39,0l-3.17,2.62-12.51-9.15,15.74-11.53Zm-1.7,5.62c2.14,0,2.35,1.89,2.35,1.89h0s.2-1.89,2.34-1.89c2.14,0,3.19,2.31,1.58,4.58-1.61,2.27-3.88,4.91-3.94,5.17-.06-.25-2.29-2.89-3.9-5.16-1.62-2.27-.57-4.58,1.57-4.58Z"/>
    </g>
  </g>
</svg>
