<svg id="Layer_2" data-name="Layer 2" xmlns="http://www.w3.org/2000/svg" viewBox="0 0 95.88 95.88">
  <defs>
    <style>
      .cls-1 {
        fill: none;
      }

      .cls-2 {
        clip-path: url(#clippath);
      }

      .cls-3 {
        fill: #fff;
      }

      .cls-4 {
        fill: #935c9a;
      }

      .cls-5 {
        fill: #231f20;
      }
    </style>
    <clipPath id="clippath">
      <path class="cls-1" d="M93.33,47.94c0,25.07-20.32,45.39-45.39,45.39S2.55,73.01,2.55,47.94,22.87,2.55,47.94,2.55s45.39,20.32,45.39,45.39ZM47.94,11.72C27.94,11.72,11.72,27.94,11.72,47.94s16.22,36.22,36.22,36.22,36.22-16.22,36.22-36.22S67.94,11.72,47.94,11.72Z"/>
    </clipPath>
  </defs>
  <g id="Layer_1-2" data-name="Layer 1">
    <g>
      <g>
        <circle class="cls-5" cx="47.94" cy="47.94" r="47.94"/>
        <circle class="cls-3" cx="47.94" cy="47.94" r="33.9"/>
        <path class="cls-5" d="M47.97,79.4c-.99,.03-1.94-.04-2.9-.13l.19-2.09c.89,.08,1.84,.14,2.71,.12,.91,0,1.82-.04,2.71-.13l.2,2.09c-.96,.09-1.94,.13-2.91,.13Zm-8.6-1.18c-1.86-.52-3.68-1.23-5.42-2.09l.93-1.88c1.62,.8,3.32,1.46,5.05,1.95l-.57,2.02Zm17.21-.02l-.57-2.02c1.73-.49,3.43-1.15,5.04-1.96l.94,1.88c-1.73,.87-3.55,1.57-5.41,2.1Zm-27.56-5.12c-1.54-1.16-2.99-2.48-4.29-3.9l1.55-1.42c1.22,1.33,2.57,2.56,4.01,3.64l-1.26,1.68Zm37.9-.04l-1.27-1.67c1.44-1.09,2.78-2.32,4-3.65l1.55,1.41c-1.3,1.43-2.74,2.75-4.29,3.91Zm-45.7-8.48c-1.02-1.64-1.9-3.39-2.6-5.19l1.96-.76c.65,1.68,1.47,3.31,2.43,4.84l-1.78,1.11Zm53.48-.06l-1.79-1.11c.95-1.53,1.76-3.17,2.42-4.85l1.96,.76c-.7,1.8-1.57,3.55-2.59,5.2Zm-57.68-10.71c-.36-1.89-.54-3.83-.54-5.78h2.1c0,1.81,.17,3.62,.51,5.39l-2.06,.39Zm61.85-.07l-2.06-.38c.33-1.77,.49-3.58,.49-5.39v-.13s2.1,0,2.1,0v.11c0,1.96-.18,3.91-.53,5.8Zm-59.81-11.11l-2.07-.38c.35-1.91,.88-3.79,1.57-5.59l1.96,.76c-.65,1.68-1.14,3.43-1.47,5.21Zm57.73-.18c-.34-1.77-.84-3.52-1.5-5.2l1.96-.77c.71,1.8,1.25,3.68,1.61,5.58l-2.06,.39Zm-53.85-9.88l-1.79-1.1c1.01-1.64,2.19-3.2,3.49-4.64l1.55,1.41c-1.21,1.34-2.31,2.79-3.26,4.33Zm49.92-.16c-.96-1.53-2.06-2.98-3.28-4.31l1.55-1.42c1.31,1.43,2.49,2.98,3.52,4.62l-1.78,1.11Zm-42.67-7.83l-1.27-1.67c1.54-1.17,3.2-2.21,4.92-3.07l.94,1.88c-1.61,.81-3.16,1.77-4.59,2.87Zm35.37-.11c-1.44-1.09-3-2.04-4.61-2.84l.93-1.88c1.73,.86,3.4,1.88,4.94,3.04l-1.26,1.68Zm-25.73-4.73l-.58-2.02c1.85-.53,3.77-.9,5.7-1.08l.2,2.09c-1.8,.17-3.59,.51-5.32,1.01Zm16.06-.05c-1.73-.49-3.53-.81-5.33-.97l.18-2.09c1.93,.17,3.85,.52,5.71,1.04l-.57,2.02Z"/>
        <g class="cls-2">
          <g>
            <g>
              <g id="_Radial_Repeat_" data-name="&amp;lt;Radial Repeat&amp;gt;">
                <polygon class="cls-4" points="77.19 119.85 47.94 47.87 18.69 119.85 77.19 119.85"/>
              </g>
              <g id="_Radial_Repeat_-2" data-name="&amp;lt;Radial Repeat&amp;gt;">
                <polygon class="cls-4" points="-23.97 77.19 48.01 47.94 -23.97 18.69 -23.97 77.19"/>
              </g>
              <g id="_Radial_Repeat_-3" data-name="&amp;lt;Radial Repeat&amp;gt;">
                <polygon class="cls-4" points="18.69 -23.98 47.94 48 77.19 -23.98 18.69 -23.98"/>
              </g>
              <g id="_Radial_Repeat_-4" data-name="&amp;lt;Radial Repeat&amp;gt;">
                <polygon class="cls-4" points="119.85 18.69 47.88 47.94 119.85 77.19 119.85 18.69"/>
              </g>
            </g>
            <g>
              <g id="_Radial_Repeat_-5" data-name="&amp;lt;Radial Repeat&amp;gt;">
                <polygon class="cls-3" points="-9.47 3.65 47.99 47.98 3.65 -9.47 -9.47 3.65"/>
              </g>
              <g id="_Radial_Repeat_-6" data-name="&amp;lt;Radial Repeat&amp;gt;">
                <polygon class="cls-3" points="92.23 -9.47 47.89 47.99 105.35 3.65 92.23 -9.47"/>
              </g>
              <g id="_Radial_Repeat_-7" data-name="&amp;lt;Radial Repeat&amp;gt;">
                <polygon class="cls-3" points="105.35 92.23 47.89 47.89 92.23 105.35 105.35 92.23"/>
              </g>
              <g id="_Radial_Repeat_-8" data-name="&amp;lt;Radial Repeat&amp;gt;">
                <polygon class="cls-3" points="3.65 105.35 47.99 47.89 -9.47 92.23 3.65 105.35"/>
              </g>
            </g>
          </g>
        </g>
        <path d="M45.86,87.86c-.99,0-1.8,.78-1.81,1.78,0,.99,.78,1.8,1.78,1.81,.9,0,1.64-.64,1.78-1.5,.02,0,.04,.01,.07,.02-.01,.33-.06,.79-.19,1.2-.25,.76-.53,1.35-.53,1.35l1.93,.02s-.59-1.53-.67-2.56c.02,0,.04,0,.06-.02,.13,.86,.86,1.52,1.75,1.53,.99,.01,1.8-.78,1.81-1.78,0-.99-.78-1.8-1.78-1.81-.41,0-.78,.13-1.08,.35-.01-.02-.02-.04-.04-.06,.49-.32,.82-.86,.83-1.49,0-.99-.78-1.8-1.78-1.81-.99,0-1.8,.78-1.81,1.78,0,.63,.31,1.18,.8,1.51-.01,.02-.03,.04-.04,.06-.3-.23-.67-.37-1.08-.38Z"/>
        <polygon class="cls-3" points="10.74 47.98 7.03 44.79 3.21 47.96 7.02 51.09 10.74 47.98"/>
        <path d="M47.94,3.21h0s-.92,1.18-1.93,2.39c-1.01,1.21-1.71,1.85-1.21,3,.5,1.16,1.96,1.08,2.83,.56,0,0,.19,.2-.76,1.76h2.13c-.95-1.56-.76-1.76-.76-1.76,.87,.51,2.33,.6,2.83-.56,.51-1.16-.2-1.79-1.21-3-1.01-1.21-1.93-2.39-1.93-2.39Z"/>
        <path class="cls-3" d="M88.77,45.17c-1.61,1.14-3.47,2.72-3.65,2.76,.18,.04,2.05,1.64,3.66,2.79,1.61,1.14,3.24,.4,3.24-1.12,0-1.52-1.34-1.66-1.34-1.66h0s1.34-.15,1.34-1.66c0-1.52-1.64-2.26-3.24-1.11Z"/>
      </g>
      <g>
        <g>
          <path class="cls-5" d="M62.14,54.51c-.64,0-1.3-.14-1.96-.42-4.25-1.84-7.64-9.01-9.74-14.71-.33-.91-.63-1.81-.91-2.69-.17-.55,.12-1.15,.67-1.35l11.88-4.32c.54-.2,1.15,.07,1.38,.6,.36,.87,.71,1.76,1.03,2.64,2.06,5.71,4.07,13.39,1.99,17.53-.6,1.2-1.53,2.02-2.7,2.39-.53,.22-1.08,.32-1.64,.32Zm-10.21-17.48c.18,.53,.36,1.07,.56,1.6,2.71,7.37,5.83,12.28,8.56,13.46,.71,.31,1.34,.33,1.94,.07,.04-.01,.07-.03,.11-.04,.62-.19,1.1-.62,1.44-1.3,1.33-2.65,.57-8.42-2.1-15.81-.19-.54-.4-1.06-.6-1.58l-9.91,3.61Z"/>
          <path class="cls-5" d="M67.15,64.51c-.44,0-.86-.27-1.02-.72l-3.73-10.25c-.21-.56,.09-1.19,.65-1.39,.56-.2,1.19,.09,1.39,.65l3.73,10.25c.21,.56-.09,1.19-.65,1.39-.12,.04-.25,.07-.37,.07Z"/>
          <path class="cls-5" d="M63.92,66.3c-.44,0-.86-.27-1.02-.72-.21-.56,.09-1.19,.65-1.39l6.85-2.49c.57-.2,1.19,.09,1.39,.65,.21,.56-.09,1.19-.65,1.39l-6.85,2.49c-.12,.04-.25,.07-.37,.07Z"/>
          <path class="cls-5" d="M53.4,44.18c-.06,0-.12,0-.18-.01-.59-.1-.99-.66-.89-1.25,.07-.39,.51-1.75,3.53-2.91,1.47-.57,2.27-.6,3.04-.64,.7-.03,1.36-.06,2.76-.58,1.51-.55,1.88-1.23,1.88-1.24,.22-.56,.84-.8,1.41-.58,.56,.22,.82,.88,.59,1.44-.1,.25-.73,1.55-3.14,2.42-1.71,.62-2.61,.67-3.4,.7-.68,.03-1.22,.06-2.37,.5-1.72,.66-2.13,1.26-2.19,1.36-.13,.47-.56,.79-1.04,.79Zm1.07-.91h0s0,0,0,0Zm0,0s0,0,0,0c0,0,0,0,0,0Z"/>
        </g>
        <g>
          <path class="cls-5" d="M33.74,54.51c-.56,0-1.12-.11-1.64-.32-1.17-.37-2.1-1.2-2.7-2.39-2.08-4.14-.06-11.81,1.99-17.52,.32-.89,.67-1.78,1.03-2.65,.22-.54,.83-.8,1.38-.6l11.88,4.32c.55,.2,.84,.79,.67,1.35-.28,.88-.58,1.78-.91,2.69-2.1,5.7-5.49,12.87-9.74,14.71-.66,.28-1.32,.42-1.96,.42Zm.3-21.09c-.21,.52-.41,1.05-.6,1.59-2.66,7.39-3.43,13.15-2.09,15.81,.34,.69,.82,1.12,1.44,1.3,.04,.01,.07,.03,.11,.04,.6,.26,1.24,.23,1.94-.07,2.73-1.18,5.84-6.08,8.56-13.46,.19-.53,.38-1.07,.56-1.6l-9.91-3.61Z"/>
          <path class="cls-5" d="M28.73,64.51c-.12,0-.25-.02-.37-.07-.56-.21-.86-.83-.65-1.39l3.73-10.25c.21-.56,.83-.85,1.39-.65,.56,.21,.86,.83,.65,1.39l-3.73,10.25c-.16,.44-.58,.72-1.02,.72Z"/>
          <path class="cls-5" d="M31.96,66.3c-.12,0-.25-.02-.37-.07l-6.85-2.49c-.56-.21-.86-.83-.65-1.39,.21-.56,.83-.85,1.39-.65l6.85,2.49c.56,.21,.86,.83,.65,1.39-.16,.44-.58,.72-1.02,.72Z"/>
          <path class="cls-5" d="M42.48,44.18c-.48,0-.91-.32-1.04-.79-.06-.1-.47-.7-2.19-1.36-1.15-.44-1.68-.47-2.37-.5-.79-.04-1.69-.08-3.4-.7-2.41-.88-3.04-2.17-3.14-2.42-.22-.56,.04-1.19,.6-1.42,.55-.22,1.19,.04,1.42,.6h0s.4,.66,1.87,1.19c1.4,.51,2.06,.54,2.76,.58,.77,.04,1.57,.07,3.04,.64,3.01,1.16,3.46,2.52,3.53,2.91,.1,.59-.3,1.15-.89,1.25-.06,0-.12,.01-.18,.01Zm-1.07-.91h0s0,0,0,0Zm0,0s0,0,0,0c0,0,0,0,0,0Z"/>
        </g>
        <g>
          <path class="cls-5" d="M45.78,22.38c1.97,0,2.16,1.74,2.16,1.74h0s.19-1.74,2.16-1.74c1.97,0,2.94,2.12,1.45,4.22-1.49,2.09-3.57,4.52-3.62,4.75-.06-.23-2.1-2.66-3.59-4.75-1.49-2.09-.52-4.22,1.45-4.22Z"/>
          <path class="cls-5" d="M53.53,31.65c-.36,0-.72-.17-.95-.48-.39-.52-.28-1.27,.25-1.66l4.52-3.35c.52-.39,1.26-.28,1.66,.25,.39,.52,.28,1.27-.25,1.66l-4.52,3.35c-.21,.16-.46,.23-.7,.23Z"/>
          <path class="cls-5" d="M42.35,31.65c-.25,0-.49-.08-.7-.23l-4.52-3.35c-.52-.39-.63-1.13-.25-1.66,.39-.52,1.13-.63,1.66-.25l4.52,3.35c.52,.39,.63,1.13,.25,1.66-.23,.31-.59,.48-.95,.48Z"/>
        </g>
      </g>
    </g>
  </g>
</svg>
