<svg id="Layer_2" data-name="Layer 2" xmlns="http://www.w3.org/2000/svg" viewBox="0 0 86.06 73.61">
  <defs>
    <style>
      .cls-1 {
        fill: #e19a4f;
      }
    </style>
  </defs>
  <g id="Layer_1-2" data-name="Layer 1">
    <path class="cls-1" d="M85.8,12.26l-.54-.93c-.54-.93-1.73-1.23-2.65-.69l-29.58,17.65L78.86,4.1c.78-.73,.81-1.96,.07-2.73l-.75-.78c-.74-.77-1.97-.79-2.73-.04l-28.37,27.84h-9.53c1.81-.9,3.79-1.91,5.57-2.9,4.9-2.73,4.98-7.84,1.09-9.69-3.89-1.85-5.89,1.41-5.89,1.41h0s1.27-3.61-2.63-5.46c-3.89-1.85-7.79,1.44-6.82,6.97,.59,3.34,1.46,7.09,2.04,9.67h-8.57c.54-1.98,1.24-4.57,1.74-6.9,.94-4.38-2.08-7.12-5.24-5.76-3.16,1.36-2.26,4.28-2.26,4.28h0s-1.5-2.66-4.66-1.3c-3.16,1.36-3.24,5.44,.59,7.76,1.06,.64,2.2,1.3,3.31,1.91H2.09c-.57,0-1.12,.23-1.52,.65-.4,.41-.6,.97-.58,1.54,.76,16.28,10.92,30.35,26.01,36.24v4.69c0,1.16,.94,2.09,2.09,2.09h28.12c1.16,0,2.09-.94,2.09-2.09v-5.74c13.67-6.41,22.88-20.08,23.59-35.2,.03-.57-.18-1.13-.58-1.54-.4-.41-.94-.65-1.52-.65h-18.63l23.88-13.5c.93-.53,1.25-1.71,.72-2.64Zm-30.39,50.24c-.77,.33-1.27,1.09-1.27,1.93v5H30.21v-4.05c0-.89-.56-1.68-1.4-1.98-13.55-4.74-22.95-16.69-24.45-30.81H77.57c-1.42,13.1-9.93,24.69-22.16,29.92Z"/>
  </g>
</svg>
