<svg id="Layer_2" data-name="Layer 2" xmlns="http://www.w3.org/2000/svg" viewBox="0 0 95.88 95.88">
  <defs>
    <style>
      .cls-1 {
        fill: none;
      }

      .cls-2 {
        clip-path: url(#clippath);
      }

      .cls-3 {
        fill: #fff;
      }

      .cls-4 {
        fill: #e19a4f;
      }

      .cls-5 {
        fill: #231f20;
      }
    </style>
    <clipPath id="clippath">
      <path class="cls-1" d="M93.33,47.94c0,25.07-20.32,45.39-45.39,45.39S2.55,73.01,2.55,47.94,22.87,2.55,47.94,2.55s45.39,20.32,45.39,45.39ZM47.94,11.72C27.94,11.72,11.72,27.94,11.72,47.94s16.22,36.22,36.22,36.22,36.22-16.22,36.22-36.22S67.94,11.72,47.94,11.72Z"/>
    </clipPath>
  </defs>
  <g id="Layer_1-2" data-name="Layer 1">
    <g>
      <g>
        <circle class="cls-5" cx="47.94" cy="47.94" r="47.94"/>
        <circle class="cls-3" cx="47.94" cy="47.94" r="33.9"/>
        <path class="cls-5" d="M47.94,79.4c-.96,0-1.92-.04-2.87-.13l.19-2.09c1.78,.16,3.64,.16,5.42,0l.19,2.09c-.96,.09-1.95,.13-2.93,.13Zm-8.58-1.18c-1.86-.53-3.68-1.23-5.41-2.09l.93-1.88c1.62,.8,3.32,1.46,5.05,1.95l-.57,2.02Zm17.21-.02l-.57-2.02c1.73-.49,3.43-1.15,5.05-1.96l.94,1.88c-1.73,.87-3.55,1.57-5.41,2.1Zm-27.56-5.12c-1.55-1.17-2.99-2.48-4.29-3.9l1.55-1.42c1.22,1.33,2.56,2.56,4.01,3.64l-1.26,1.68Zm37.9-.04l-1.27-1.67c1.44-1.09,2.78-2.32,4-3.65l1.55,1.41c-1.3,1.43-2.74,2.75-4.29,3.91Zm-45.7-8.49c-1.02-1.64-1.9-3.39-2.6-5.19l1.96-.76c.65,1.68,1.47,3.31,2.43,4.84l-1.78,1.11Zm53.48-.05l-1.79-1.11c.95-1.53,1.76-3.17,2.42-4.85l1.96,.76c-.7,1.8-1.57,3.55-2.59,5.2Zm-57.68-10.71c-.36-1.89-.54-3.84-.54-5.78h2.1c0,1.81,.17,3.62,.5,5.39l-2.06,.39Zm61.86-.07l-2.06-.38c.33-1.77,.49-3.58,.49-5.39v-.13h2.1v.13c0,1.94-.18,3.88-.53,5.78Zm-59.81-11.11l-2.07-.38c.35-1.9,.88-3.78,1.57-5.59l1.96,.75c-.65,1.68-1.14,3.43-1.47,5.21Zm57.73-.18c-.34-1.77-.84-3.52-1.5-5.2l1.96-.77c.71,1.8,1.25,3.67,1.61,5.58l-2.06,.39Zm-53.85-9.88l-1.79-1.1c1.02-1.65,2.19-3.21,3.49-4.64l1.55,1.41c-1.21,1.34-2.31,2.79-3.26,4.33Zm49.92-.16c-.96-1.53-2.06-2.98-3.28-4.31l1.55-1.42c1.31,1.43,2.49,2.98,3.52,4.61l-1.78,1.11Zm-42.67-7.83l-1.27-1.67c1.54-1.17,3.2-2.21,4.92-3.07l.94,1.88c-1.61,.81-3.15,1.77-4.59,2.87Zm35.37-.11c-1.45-1.08-3-2.04-4.61-2.84l.93-1.88c1.73,.86,3.39,1.88,4.94,3.04l-1.26,1.68Zm-25.73-4.73l-.58-2.02c1.85-.53,3.77-.9,5.7-1.08l.2,2.09c-1.8,.17-3.59,.51-5.32,1.01Zm16.06-.05c-1.73-.49-3.53-.81-5.33-.97l.18-2.09c1.93,.17,3.85,.52,5.71,1.04l-.57,2.02Z"/>
        <g class="cls-2">
          <g>
            <g>
              <g id="_Radial_Repeat_" data-name="&amp;lt;Radial Repeat&amp;gt;">
                <polygon class="cls-4" points="77.19 119.85 47.94 47.87 18.69 119.85 77.19 119.85"/>
              </g>
              <g id="_Radial_Repeat_-2" data-name="&amp;lt;Radial Repeat&amp;gt;">
                <polygon class="cls-4" points="-23.97 77.19 48.01 47.94 -23.97 18.69 -23.97 77.19"/>
              </g>
              <g id="_Radial_Repeat_-3" data-name="&amp;lt;Radial Repeat&amp;gt;">
                <polygon class="cls-4" points="18.69 -23.98 47.94 48 77.19 -23.98 18.69 -23.98"/>
              </g>
              <g id="_Radial_Repeat_-4" data-name="&amp;lt;Radial Repeat&amp;gt;">
                <polygon class="cls-4" points="119.86 18.69 47.88 47.94 119.86 77.19 119.86 18.69"/>
              </g>
            </g>
            <g>
              <g id="_Radial_Repeat_-5" data-name="&amp;lt;Radial Repeat&amp;gt;">
                <polygon class="cls-3" points="-9.47 3.65 47.99 47.99 3.65 -9.47 -9.47 3.65"/>
              </g>
              <g id="_Radial_Repeat_-6" data-name="&amp;lt;Radial Repeat&amp;gt;">
                <polygon class="cls-3" points="92.23 -9.47 47.89 47.99 105.35 3.65 92.23 -9.47"/>
              </g>
              <g id="_Radial_Repeat_-7" data-name="&amp;lt;Radial Repeat&amp;gt;">
                <polygon class="cls-3" points="105.35 92.23 47.89 47.89 92.23 105.35 105.35 92.23"/>
              </g>
              <g id="_Radial_Repeat_-8" data-name="&amp;lt;Radial Repeat&amp;gt;">
                <polygon class="cls-3" points="3.65 105.35 47.99 47.89 -9.47 92.23 3.65 105.35"/>
              </g>
            </g>
          </g>
        </g>
        <path d="M45.86,87.86c-.99,0-1.8,.78-1.81,1.78,0,.99,.78,1.8,1.78,1.81,.9,0,1.64-.64,1.78-1.5,.02,0,.04,.01,.07,.02-.01,.33-.06,.79-.19,1.2-.25,.76-.53,1.35-.53,1.35l1.93,.02s-.59-1.53-.67-2.56c.02,0,.04,0,.06-.02,.13,.86,.86,1.52,1.75,1.53,.99,.01,1.8-.78,1.81-1.78,0-.99-.78-1.8-1.78-1.81-.41,0-.78,.13-1.08,.35-.01-.02-.02-.04-.04-.06,.49-.32,.82-.86,.83-1.49,0-.99-.78-1.8-1.78-1.81-.99,0-1.8,.78-1.81,1.78,0,.63,.31,1.18,.8,1.51-.01,.02-.03,.04-.04,.06-.3-.23-.67-.37-1.08-.38Z"/>
        <polygon class="cls-3" points="10.74 47.98 7.03 44.79 3.21 47.96 7.02 51.09 10.74 47.98"/>
        <path d="M47.94,3.21h0s-.92,1.18-1.93,2.39c-1.01,1.21-1.71,1.85-1.21,3,.5,1.16,1.96,1.08,2.83,.56,0,0,.19,.2-.76,1.76h2.13c-.95-1.56-.76-1.76-.76-1.76,.87,.51,2.33,.6,2.83-.56,.51-1.16-.2-1.79-1.21-3-1.01-1.21-1.93-2.39-1.93-2.39Z"/>
        <path class="cls-3" d="M88.77,45.17c-1.61,1.14-3.47,2.72-3.65,2.76,.18,.04,2.05,1.64,3.66,2.79,1.61,1.14,3.24,.4,3.24-1.12,0-1.52-1.34-1.66-1.34-1.66h0s1.34-.15,1.34-1.66c0-1.52-1.64-2.26-3.24-1.11Z"/>
      </g>
      <path class="cls-5" d="M71.21,38.47l-.28-.48c-.28-.48-.9-.64-1.38-.36l-15.37,9.17,13.42-12.57c.41-.38,.42-1.02,.04-1.42l-.39-.4c-.38-.4-1.02-.41-1.42-.02l-14.74,14.47h-4.95c.94-.47,1.97-.99,2.89-1.51,2.55-1.42,2.59-4.07,.57-5.03-2.02-.96-3.06,.73-3.06,.73h0s.66-1.88-1.36-2.84c-2.02-.96-4.05,.75-3.54,3.62,.31,1.73,.76,3.69,1.06,5.03h-4.46c.28-1.03,.64-2.38,.9-3.59,.49-2.28-1.08-3.7-2.72-2.99-1.64,.71-1.17,2.23-1.17,2.23h0s-.78-1.38-2.42-.68c-1.64,.71-1.68,2.83,.31,4.03,.55,.33,1.14,.67,1.72,.99h-7.13c-.3,0-.58,.12-.79,.34-.21,.22-.31,.51-.3,.8,.4,8.46,5.67,15.77,13.52,18.83v2.44c0,.6,.49,1.09,1.09,1.09h14.62c.6,0,1.09-.49,1.09-1.09v-2.98c7.11-3.33,11.89-10.43,12.26-18.29,.01-.3-.09-.59-.3-.8-.21-.22-.49-.34-.79-.34h-9.68l12.41-7.02c.48-.27,.65-.89,.37-1.37Zm-15.79,26.11c-.4,.17-.66,.57-.66,1v2.6h-12.44v-2.11c0-.46-.29-.87-.73-1.03-7.04-2.46-11.93-8.67-12.7-16.01h38.05c-.74,6.81-5.16,12.83-11.51,15.55Z"/>
    </g>
  </g>
</svg>
