<svg id="Layer_2" data-name="Layer 2" xmlns="http://www.w3.org/2000/svg" viewBox="0 0 74.32 71.81">
  <defs>
    <style>
      .cls-1 {
        fill: #317cc0;
      }
    </style>
  </defs>
  <g id="Layer_1-2" data-name="Layer 1">
    <path class="cls-1" d="M74.17,27.56c.26-.65,.19-1.41-.25-2.01-.3-.4-.71-.66-1.16-.78-.3-.34-.63-.65-1-.93L40.87,1.22c-2.22-1.62-5.2-1.62-7.42,0,0,0,0,0,0,0L2.57,23.84c-.37,.27-.7,.59-1,.93-.45,.12-.87,.38-1.16,.78-.44,.6-.51,1.36-.25,2.01-.1,.44-.15,.89-.15,1.35v36.62c0,3.46,2.82,6.28,6.28,6.28h61.76c3.46,0,6.28-2.82,6.28-6.28V28.91c0-.46-.06-.91-.15-1.35Zm-4.04,37.95l-22.2-18.35,22.2-16.24v34.59ZM4.19,30.92l22.2,16.24L4.19,65.51V30.92Zm32.97,12.77l28.95,23.94H8.21l28.95-23.94Zm-1.24-39.09h0c.74-.54,1.73-.54,2.47,0l30.28,22.19-24.08,17.62-6.11-5.05c-.77-.64-1.9-.64-2.67,0l-6.11,5.05L5.64,26.79,35.93,4.6Zm-3.28,10.82c4.12,0,4.51,3.64,4.51,3.64h0s.39-3.64,4.51-3.64c4.12,0,6.15,4.44,3.04,8.82-3.11,4.38-7.46,9.45-7.58,9.94-.12-.49-4.4-5.56-7.51-9.93-3.11-4.37-1.09-8.82,3.03-8.82Z"/>
  </g>
</svg>
