<svg id="Layer_2" data-name="Layer 2" xmlns="http://www.w3.org/2000/svg" viewBox="0 0 95.88 95.88">
  <defs>
    <style>
      .cls-1 {
        fill: none;
      }

      .cls-2 {
        clip-path: url(#clippath);
      }

      .cls-3 {
        fill: #fff;
      }

      .cls-4 {
        fill: #231f20;
      }

      .cls-5 {
        fill: #5db046;
      }
    </style>
    <clipPath id="clippath">
      <path class="cls-1" d="M93.33,47.94c0,25.07-20.32,45.39-45.39,45.39S2.55,73.01,2.55,47.94,22.87,2.55,47.94,2.55s45.39,20.32,45.39,45.39ZM47.94,11.72C27.94,11.72,11.72,27.94,11.72,47.94s16.22,36.22,36.22,36.22,36.22-16.22,36.22-36.22S67.94,11.72,47.94,11.72Z"/>
    </clipPath>
  </defs>
  <g id="Layer_1-2" data-name="Layer 1">
    <g>
      <g>
        <circle class="cls-4" cx="47.94" cy="47.94" r="47.94"/>
        <circle class="cls-3" cx="47.94" cy="47.94" r="33.9"/>
        <path class="cls-4" d="M47.94,79.4c-.96,0-1.92-.04-2.87-.13l.19-2.09c1.79,.16,3.64,.16,5.42,0l.19,2.09c-.96,.09-1.95,.13-2.93,.13Zm-8.57-1.18c-1.86-.52-3.68-1.23-5.42-2.09l.93-1.88c1.62,.8,3.32,1.46,5.05,1.95l-.57,2.02Zm17.21-.02l-.57-2.02c1.73-.49,3.43-1.15,5.04-1.96l.94,1.88c-1.73,.87-3.55,1.57-5.41,2.1Zm-27.56-5.12c-1.54-1.16-2.99-2.48-4.29-3.9l1.55-1.42c1.22,1.33,2.57,2.56,4.01,3.64l-1.26,1.68Zm37.9-.04l-1.27-1.67c1.44-1.09,2.78-2.32,4-3.65l1.55,1.41c-1.3,1.43-2.74,2.75-4.29,3.91Zm-45.7-8.48c-1.02-1.64-1.9-3.39-2.6-5.19l1.96-.76c.65,1.68,1.47,3.31,2.43,4.84l-1.78,1.11Zm53.48-.06l-1.79-1.11c.95-1.53,1.76-3.17,2.42-4.85l1.96,.76c-.7,1.8-1.57,3.55-2.59,5.2Zm-57.68-10.71c-.36-1.89-.54-3.83-.54-5.78h2.1c0,1.81,.17,3.62,.51,5.39l-2.06,.39Zm61.85-.07l-2.06-.38c.33-1.77,.49-3.58,.49-5.39v-.13s2.1,0,2.1,0v.11c0,1.96-.18,3.91-.53,5.8Zm-59.81-11.11l-2.07-.38c.35-1.91,.88-3.79,1.57-5.59l1.96,.76c-.65,1.68-1.14,3.43-1.47,5.21Zm57.73-.18c-.34-1.77-.84-3.52-1.5-5.2l1.96-.77c.71,1.8,1.25,3.68,1.61,5.58l-2.06,.39Zm-53.85-9.88l-1.79-1.1c1.01-1.64,2.19-3.2,3.49-4.64l1.55,1.41c-1.21,1.34-2.31,2.79-3.26,4.33Zm49.92-.16c-.96-1.53-2.06-2.98-3.28-4.31l1.55-1.42c1.31,1.43,2.49,2.98,3.52,4.62l-1.78,1.11Zm-42.67-7.83l-1.27-1.67c1.54-1.17,3.2-2.21,4.92-3.07l.94,1.88c-1.61,.81-3.16,1.77-4.59,2.87Zm35.37-.11c-1.44-1.09-3-2.04-4.61-2.84l.93-1.88c1.73,.86,3.4,1.88,4.94,3.04l-1.26,1.68Zm-25.73-4.73l-.58-2.02c1.85-.53,3.77-.9,5.7-1.08l.2,2.09c-1.8,.17-3.59,.51-5.32,1.01Zm16.06-.05c-1.73-.49-3.53-.81-5.33-.97l.18-2.09c1.93,.17,3.85,.52,5.71,1.04l-.57,2.02Z"/>
        <g class="cls-2">
          <g>
            <g>
              <g id="_Radial_Repeat_" data-name="&amp;lt;Radial Repeat&amp;gt;">
                <polygon class="cls-5" points="77.19 119.85 47.94 47.87 18.69 119.85 77.19 119.85"/>
              </g>
              <g id="_Radial_Repeat_-2" data-name="&amp;lt;Radial Repeat&amp;gt;">
                <polygon class="cls-5" points="-23.97 77.19 48.01 47.94 -23.97 18.69 -23.97 77.19"/>
              </g>
              <g id="_Radial_Repeat_-3" data-name="&amp;lt;Radial Repeat&amp;gt;">
                <polygon class="cls-5" points="18.69 -23.98 47.94 48 77.19 -23.98 18.69 -23.98"/>
              </g>
              <g id="_Radial_Repeat_-4" data-name="&amp;lt;Radial Repeat&amp;gt;">
                <polygon class="cls-5" points="119.85 18.69 47.88 47.94 119.85 77.19 119.85 18.69"/>
              </g>
            </g>
            <g>
              <g id="_Radial_Repeat_-5" data-name="&amp;lt;Radial Repeat&amp;gt;">
                <polygon class="cls-3" points="-9.47 3.65 47.99 47.99 3.65 -9.47 -9.47 3.65"/>
              </g>
              <g id="_Radial_Repeat_-6" data-name="&amp;lt;Radial Repeat&amp;gt;">
                <polygon class="cls-3" points="92.23 -9.47 47.89 47.99 105.35 3.65 92.23 -9.47"/>
              </g>
              <g id="_Radial_Repeat_-7" data-name="&amp;lt;Radial Repeat&amp;gt;">
                <polygon class="cls-3" points="105.35 92.23 47.89 47.89 92.23 105.35 105.35 92.23"/>
              </g>
              <g id="_Radial_Repeat_-8" data-name="&amp;lt;Radial Repeat&amp;gt;">
                <polygon class="cls-3" points="3.65 105.35 47.99 47.89 -9.47 92.23 3.65 105.35"/>
              </g>
            </g>
          </g>
        </g>
        <path d="M45.86,87.86c-.99,0-1.8,.78-1.81,1.78,0,.99,.78,1.8,1.78,1.81,.9,0,1.64-.64,1.78-1.5,.02,0,.04,.01,.07,.02-.01,.33-.06,.79-.19,1.2-.25,.76-.53,1.35-.53,1.35l1.93,.02s-.59-1.53-.67-2.56c.02,0,.04,0,.06-.02,.13,.86,.86,1.52,1.75,1.53,.99,.01,1.8-.78,1.81-1.78,0-.99-.78-1.8-1.78-1.81-.41,0-.78,.13-1.08,.35-.01-.02-.02-.04-.04-.06,.49-.32,.82-.86,.83-1.49,0-.99-.78-1.8-1.78-1.81-.99,0-1.8,.78-1.81,1.78,0,.63,.31,1.18,.8,1.51-.01,.02-.03,.04-.04,.06-.3-.23-.67-.37-1.08-.38Z"/>
        <polygon class="cls-3" points="10.74 47.98 7.03 44.79 3.21 47.96 7.02 51.09 10.74 47.98"/>
        <path d="M47.94,3.21h0s-.92,1.18-1.93,2.39c-1.01,1.21-1.71,1.85-1.21,3,.5,1.16,1.96,1.08,2.83,.56,0,0,.19,.2-.76,1.76h2.13c-.95-1.56-.76-1.76-.76-1.76,.87,.51,2.33,.6,2.83-.56,.51-1.16-.2-1.79-1.21-3-1.01-1.21-1.93-2.39-1.93-2.39Z"/>
        <path class="cls-3" d="M88.77,45.17c-1.61,1.14-3.47,2.72-3.65,2.76,.18,.04,2.05,1.64,3.66,2.79,1.61,1.14,3.24,.4,3.24-1.12,0-1.52-1.34-1.66-1.34-1.66h0s1.34-.15,1.34-1.66c0-1.52-1.64-2.26-3.24-1.11Z"/>
      </g>
      <g>
        <g>
          <path class="cls-4" d="M34.06,71.75c-.18,0-.36-.05-.53-.14-.37-.21-.57-.62-.52-1.04l4.05-32.75c.04-.35,.26-.65,.57-.81,.31-.16,.69-.15,.99,.03l22.28,12.86c.3,.18,.5,.49,.52,.84s-.13,.69-.42,.9l-26.34,19.88c-.19,.14-.41,.21-.63,.21Zm4.9-32.1l-3.55,28.71,23.09-17.43-19.54-11.28Z"/>
          <path class="cls-4" d="M55.4,55.26c-.36,0-.72-.19-.91-.52-.81-1.4-1.6-2.8-2.39-4.21-.97-1.72-1.93-3.43-2.93-5.13-.29-.5-.12-1.14,.38-1.44,.5-.29,1.14-.12,1.44,.38,1,1.71,1.97,3.44,2.94,5.16,.79,1.4,1.57,2.8,2.38,4.19,.29,.5,.12,1.14-.38,1.43-.17,.1-.35,.14-.52,.14Z"/>
          <path class="cls-4" d="M50.09,59.17c-.37,0-.73-.2-.92-.54-1.77-3.21-3.66-6.41-5.49-9.5-1.9-3.21-3.87-6.53-5.68-9.84-.28-.51-.09-1.15,.42-1.42,.51-.28,1.15-.09,1.42,.42,1.79,3.28,3.75,6.58,5.64,9.78,1.84,3.1,3.74,6.32,5.52,9.56,.28,.51,.09,1.15-.41,1.43-.16,.09-.33,.13-.5,.13Z"/>
          <path class="cls-4" d="M44.91,63.51c-.36,0-.71-.19-.91-.52-.77-1.33-1.55-2.64-2.34-3.96-1.89-3.18-3.85-6.47-5.58-9.84-.26-.52-.06-1.15,.46-1.41,.52-.26,1.15-.06,1.41,.46,1.7,3.32,3.64,6.58,5.52,9.73,.79,1.32,1.57,2.64,2.35,3.98,.29,.5,.12,1.14-.38,1.44-.17,.1-.35,.14-.53,.14Z"/>
          <path class="cls-4" d="M39.51,67.31c-.35,0-.7-.18-.9-.5-1.18-1.95-2.42-4.06-3.9-6.65-.29-.5-.11-1.14,.39-1.43,.5-.29,1.14-.11,1.43,.39,1.47,2.56,2.7,4.66,3.87,6.6,.3,.5,.14,1.14-.35,1.44-.17,.1-.36,.15-.54,.15Z"/>
        </g>
        <path class="cls-4" d="M53.9,44.01c-.3,0-.6-.13-.81-.38-.37-.45-.31-1.11,.13-1.48,3.68-3.06,8.4-4.2,12.95-3.11,.56,.13,.91,.7,.78,1.27-.13,.57-.7,.91-1.27,.78-3.9-.93-7.96,.04-11.12,2.68-.2,.16-.43,.24-.67,.24Z"/>
        <path class="cls-4" d="M48.16,40.7c-.06,0-.12,0-.18-.01-.57-.1-.96-.64-.86-1.21,.7-4.06-.48-8.05-3.24-10.97-.4-.42-.38-1.09,.04-1.48,.42-.4,1.09-.38,1.48,.04,3.22,3.4,4.6,8.05,3.79,12.77-.09,.51-.53,.87-1.03,.87Z"/>
        <path class="cls-4" d="M42.24,37.35c-.55,0-1.01-.43-1.05-.99-.14-2.32-2.17-4.55-4.72-5.19-.56-.14-.9-.71-.76-1.27,.14-.56,.7-.91,1.27-.76,3.47,.87,6.12,3.85,6.31,7.1,.03,.58-.41,1.08-.99,1.11-.02,0-.04,0-.06,0Z"/>
        <path class="cls-4" d="M67.83,49.16c-.27,0-.55-.11-.75-.32-1.83-1.89-4.78-2.53-6.85-1.49-.52,.26-1.15,.05-1.41-.47s-.05-1.15,.47-1.41c2.9-1.46,6.82-.66,9.3,1.91,.4,.42,.39,1.08-.03,1.48-.2,.2-.47,.29-.73,.29Z"/>
        <path class="cls-4" d="M52.38,31.43c.25,2.67,.84,5.94,.77,6.18,.17-.18,3.33-1.29,5.77-2.41,2.44-1.12,2.67-3.55,.89-4.58-1.79-1.03-2.86,.45-2.86,.45h0s.74-1.67-1.04-2.7c-1.79-1.03-3.77,.39-3.52,3.06Z"/>
        <g>
          <circle class="cls-4" cx="68.44" cy="43.84" r="1.01"/>
          <circle class="cls-4" cx="40.13" cy="27.49" r="1.01"/>
        </g>
        <g>
          <circle class="cls-4" cx="65.8" cy="52.43" r="1.01"/>
          <circle class="cls-4" cx="34.01" cy="34.08" r="1.01"/>
        </g>
        <g>
          <circle class="cls-4" cx="62.93" cy="35.59" r="1.01"/>
          <circle class="cls-4" cx="50.02" cy="28.14" r="1.01"/>
        </g>
      </g>
    </g>
  </g>
</svg>
